<svg width="256" height="256" viewBox="0 0 256 256" fill="none" xmlns="http://www.w3.org/2000/svg">
<mask id="mask0_6_1012" style="mask-type:alpha" maskUnits="userSpaceOnUse" x="0" y="0" width="256" height="256">
<path d="M24.75 23.25L40 8L42.1421 5.85786C45.8929 2.10714 50.9799 0 56.2843 0H64H128H236C247.046 0 256 8.95431 256 20V236C256 247.046 247.046 256 236 256H20C8.95431 256 0 247.046 0 236V128V64V56.2843C0 50.9799 2.10714 45.8929 5.85786 42.1421L7.75 40.25L24.75 23.25Z" fill="#E54D28"/>
</mask>
<g mask="url(#mask0_6_1012)">
<path d="M24.75 23.25L40 8L42.1421 5.85786C45.8929 2.10714 50.9799 0 56.2843 0H64H128H236C247.046 0 256 8.95431 256 20V236C256 247.046 247.046 256 236 256H20C8.95431 256 0 247.046 0 236V128V64V56.2843C0 50.9799 2.10714 45.8929 5.85786 42.1421L7.75 40.25L24.75 23.25Z" fill="white"/>
<path d="M145.04 237.12C136.173 237.12 129.08 234.507 123.76 229.28C118.44 224.053 115.78 217.1 115.78 208.42V165.44C115.78 156.667 118.44 149.713 123.76 144.58C129.08 139.447 136.173 136.88 145.04 136.88C153.907 136.88 161 139.447 166.32 144.58C171.733 149.713 174.44 156.667 174.44 165.44V166.7C174.44 167.167 174.253 167.587 173.88 167.96C173.6 168.24 173.227 168.38 172.76 168.38L152.88 169.22C151.76 169.22 151.2 168.66 151.2 167.54V163.76C151.2 161.613 150.64 159.933 149.52 158.72C148.4 157.413 146.907 156.76 145.04 156.76C143.267 156.76 141.82 157.413 140.7 158.72C139.58 159.933 139.02 161.613 139.02 163.76V210.38C139.02 212.433 139.58 214.113 140.7 215.42C141.82 216.633 143.267 217.24 145.04 217.24C146.907 217.24 148.4 216.633 149.52 215.42C150.64 214.113 151.2 212.433 151.2 210.38V206.32C151.2 205.853 151.34 205.48 151.62 205.2C151.993 204.827 152.413 204.64 152.88 204.64L172.76 205.48C173.227 205.48 173.6 205.667 173.88 206.04C174.253 206.32 174.44 206.693 174.44 207.16V208.42C174.44 217.1 171.733 224.053 166.32 229.28C161 234.507 153.907 237.12 145.04 237.12ZM236.422 156.2C236.422 156.667 236.235 157.087 235.862 157.46C235.582 157.74 235.208 157.88 234.742 157.88H206.602C206.135 157.88 205.902 158.113 205.902 158.58V176.22C205.902 176.687 206.135 176.92 206.602 176.92H222.002C222.468 176.92 222.842 177.107 223.122 177.48C223.495 177.76 223.682 178.133 223.682 178.6V195.26C223.682 195.727 223.495 196.147 223.122 196.52C222.842 196.8 222.468 196.94 222.002 196.94H206.602C206.135 196.94 205.902 197.173 205.902 197.64V215.42C205.902 215.887 206.135 216.12 206.602 216.12H234.742C235.208 216.12 235.582 216.307 235.862 216.68C236.235 216.96 236.422 217.333 236.422 217.8V234.32C236.422 234.787 236.235 235.207 235.862 235.58C235.582 235.86 235.208 236 234.742 236H184.342C183.875 236 183.455 235.86 183.082 235.58C182.802 235.207 182.662 234.787 182.662 234.32V139.68C182.662 139.213 182.802 138.84 183.082 138.56C183.455 138.187 183.875 138 184.342 138H234.742C235.208 138 235.582 138.187 235.862 138.56C236.235 138.84 236.422 139.213 236.422 139.68V156.2Z" fill="black"/>
</g>
</svg>
