<svg width="512" height="512" viewBox="0 0 512 512" fill="none" xmlns="http://www.w3.org/2000/svg">
<mask id="mask0_6_323" style="mask-type:alpha" maskUnits="userSpaceOnUse" x="0" y="0" width="512" height="512">
<path d="M49.5 46.5L80 16L87.799 8.20101C93.05 2.94999 100.172 0 107.598 0H128H256H484C499.464 0 512 12.536 512 28V484C512 499.464 499.464 512 484 512H28C12.536 512 0 499.464 0 484V256V128V107.598C0 100.172 2.94999 93.05 8.20101 87.799L15.5 80.5L49.5 46.5Z" fill="#E54D28"/>
</mask>
<g mask="url(#mask0_6_323)">
<path d="M49.5 46.5L80 16L87.799 8.20101C93.05 2.94999 100.172 0 107.598 0H128H256H484C499.464 0 512 12.536 512 28V484C512 499.464 499.464 512 484 512H28C12.536 512 0 499.464 0 484V256V128V107.598C0 100.172 2.94999 93.05 8.20101 87.799L15.5 80.5L49.5 46.5Z" fill="#E54D28"/>
<rect x="13.7087" y="119.969" width="16.0293" height="41.6081" transform="rotate(-11.3785 13.7087 119.969)" fill="#EFEFEF"/>
<rect x="22.5901" y="164.102" width="16.0293" height="7.16205" transform="rotate(-11.3785 22.5901 164.102)" fill="#EFEFEF"/>
<rect x="14.2471" y="122.643" width="7.50309" height="38.8797" transform="rotate(-11.3785 14.2471 122.643)" fill="#BCBCBC"/>
<rect x="22.5901" y="164.102" width="7.50309" height="7.16205" transform="rotate(-11.3785 22.5901 164.102)" fill="#BCBCBC"/>
<rect x="27.3528" y="63.3005" width="3.75155" height="38.8797" transform="rotate(-11.3785 27.3528 63.3005)" fill="#BCBCBC"/>
<path fill-rule="evenodd" clip-rule="evenodd" d="M-8.75288 70.2813C-15.3191 77.7685 -18.4437 88.1234 -16.3272 98.6401C-12.7226 116.552 4.71959 128.15 22.6311 124.545C40.5426 120.94 52.1406 103.498 48.536 85.5867C46.4501 75.2219 39.7306 66.9712 30.9679 62.557L36.8081 91.5771L20.0857 111.032L-2.86065 99.5603L-8.75288 70.2813Z" fill="#EFEFEF"/>
<path fill-rule="evenodd" clip-rule="evenodd" d="M42.3415 111.771C43.027 111.092 43.6828 110.38 44.3072 109.639C43.8882 110.323 43.4447 110.992 42.9777 111.643L42.3415 111.771ZM21.5116 120.71C5.80167 121.08 -8.64769 109.141 -12.109 91.9417C-13.4109 85.4725 -12.9914 79.0882 -11.1827 73.335C-16.0586 80.48 -18.1607 89.5277 -16.3145 98.7019C-12.7139 116.593 4.54889 128.233 22.3426 124.84L21.5116 120.71Z" fill="#BCBCBC"/>
<rect x="97.9075" y="222.393" width="19.5966" height="50.8679" transform="rotate(8.92441 97.9075 222.393)" fill="#EFEFEF"/>
<rect x="89.3694" y="276.763" width="19.5966" height="8.75594" transform="rotate(8.92441 89.3694 276.763)" fill="#EFEFEF"/>
<rect x="97.3901" y="225.688" width="9.17289" height="47.5323" transform="rotate(8.92441 97.3901 225.688)" fill="#BCBCBC"/>
<rect x="89.3694" y="276.763" width="9.17289" height="8.75594" transform="rotate(8.92441 89.3694 276.763)" fill="#BCBCBC"/>
<rect x="137.59" y="163.205" width="4.58645" height="47.5323" transform="rotate(8.92441 137.59 163.205)" fill="#BCBCBC"/>
<path fill-rule="evenodd" clip-rule="evenodd" d="M93.2309 155.893C82.5259 161.692 74.5506 172.24 72.5161 185.196C69.051 207.262 84.1302 227.96 106.196 231.425C128.263 234.89 148.96 219.811 152.425 197.744C154.43 184.975 150.226 172.665 142.051 163.886L136.437 199.638L109.01 214.851L87.5667 191.963L93.2309 155.893Z" fill="#EFEFEF"/>
<path fill-rule="evenodd" clip-rule="evenodd" d="M134.214 225.139C135.289 224.65 136.342 224.113 137.372 223.529C136.602 224.135 135.81 224.713 134.998 225.262L134.214 225.139ZM106.54 226.552C88.3701 220.311 76.8672 200.493 80.1946 179.304C81.4461 171.334 84.6355 164.192 89.15 158.362C80.5279 164.486 74.2792 173.969 72.5043 185.271C69.043 207.313 83.899 227.982 105.741 231.639L106.54 226.552Z" fill="#BCBCBC"/>
<rect x="136.549" y="345.992" width="14.6483" height="38.0232" transform="rotate(45.6046 136.549 345.992)" fill="#EFEFEF"/>
<rect x="107.153" y="374.774" width="14.6483" height="6.54497" transform="rotate(45.6046 107.153 374.774)" fill="#EFEFEF"/>
<rect x="134.767" y="347.737" width="6.85663" height="35.5298" transform="rotate(45.6046 134.767 347.737)" fill="#BCBCBC"/>
<rect x="107.153" y="374.774" width="6.85663" height="6.54497" transform="rotate(45.6046 107.153 374.774)" fill="#BCBCBC"/>
<rect x="186.765" y="328.23" width="3.42832" height="35.5298" transform="rotate(45.6046 186.765 328.23)" fill="#BCBCBC"/>
<path fill-rule="evenodd" clip-rule="evenodd" d="M163.438 304.04C154.431 302.736 144.941 305.498 137.936 312.357C126.006 324.038 125.804 343.178 137.485 355.108C149.166 367.038 168.306 367.24 180.236 355.559C187.14 348.8 190.116 339.543 189.135 330.63L169.806 349.556L146.572 346.429L143.936 323.134L163.438 304.04Z" fill="#EFEFEF"/>
<path fill-rule="evenodd" clip-rule="evenodd" d="M157.086 363.851C157.949 364.038 158.821 364.186 159.7 364.296C158.967 364.315 158.233 364.308 157.501 364.275L157.086 363.851ZM139.866 352.341C131.76 340.487 133.713 323.47 145.169 312.254C149.478 308.035 154.579 305.177 159.888 303.698C151.985 303.52 144.005 306.414 137.895 312.397C125.978 324.065 125.655 343.089 137.115 355.034L139.866 352.341Z" fill="#BCBCBC"/>
<rect x="0.327148" y="293.673" width="16.8847" height="43.8284" transform="rotate(45.6046 0.327148 293.673)" fill="#EFEFEF"/>
<rect x="-1.72607" y="295.684" width="7.90348" height="40.9544" transform="rotate(45.6046 -1.72607 295.684)" fill="#BCBCBC"/>
<rect x="58.2102" y="273.198" width="3.95174" height="40.9544" transform="rotate(45.6046 58.2102 273.198)" fill="#BCBCBC"/>
<path fill-rule="evenodd" clip-rule="evenodd" d="M31.3216 245.315C20.9398 243.813 10.0006 246.996 1.92648 254.902C-11.825 268.366 -12.0579 290.429 1.40644 304.18C14.8707 317.932 36.9335 318.165 50.685 304.7C58.6427 296.909 62.0734 286.238 60.9426 275.965L38.6624 297.78L11.8806 294.176L8.84291 267.324L31.3216 245.315Z" fill="#EFEFEF"/>
<path fill-rule="evenodd" clip-rule="evenodd" d="M24.0006 314.257C24.9945 314.473 25.9993 314.644 27.0117 314.77C26.1673 314.792 25.3224 314.784 24.4789 314.746L24.0006 314.257ZM4.15099 300.99C-5.19241 287.326 -2.94087 267.712 10.264 254.783C15.2309 249.919 21.1108 246.626 27.2307 244.921C18.121 244.715 8.92266 248.051 1.87903 254.948C-11.8573 268.397 -12.2295 290.325 0.980726 304.094L4.15099 300.99Z" fill="#BCBCBC"/>
<rect x="291.55" y="528.685" width="17.2317" height="44.7292" transform="rotate(-109.559 291.55 528.685)" fill="#EFEFEF"/>
<rect x="337.152" y="512.484" width="17.2317" height="7.69928" transform="rotate(-109.559 337.152 512.484)" fill="#EFEFEF"/>
<rect x="294.313" y="527.703" width="8.06591" height="41.7961" transform="rotate(-109.559 294.313 527.703)" fill="#BCBCBC"/>
<rect x="337.152" y="512.484" width="8.06591" height="7.69928" transform="rotate(-109.559 337.152 512.484)" fill="#BCBCBC"/>
<rect x="229.164" y="522.836" width="4.03296" height="41.7961" transform="rotate(-109.559 229.164 522.836)" fill="#BCBCBC"/>
<path fill-rule="evenodd" clip-rule="evenodd" d="M242.114 560.187C251.086 566.029 262.582 567.77 273.449 563.909C291.956 557.333 301.629 537 295.054 518.492C288.479 499.984 268.145 490.311 249.637 496.886C238.927 500.691 231.175 509.104 227.819 519.103L257.806 508.45L281.065 523.268L272.368 549.439L242.114 560.187Z" fill="#EFEFEF"/>
<path fill-rule="evenodd" clip-rule="evenodd" d="M278.448 499.473C277.619 498.848 276.762 498.259 275.878 497.708C276.67 498.049 277.449 498.419 278.214 498.816L278.448 499.473ZM291.145 520.269C293.941 536.929 283.448 554.131 265.676 560.445C258.991 562.82 252.133 563.35 245.735 562.306C254.083 566.401 264.033 567.254 273.512 563.886C292 557.318 301.744 537.168 295.411 518.754L291.145 520.269Z" fill="#BCBCBC"/>
<rect x="138.892" y="29.4407" width="16.0293" height="41.6081" transform="rotate(45.6046 138.892 29.4407)" fill="#EFEFEF"/>
<rect x="106.725" y="60.9355" width="16.0293" height="7.16205" transform="rotate(45.6046 106.725 60.9355)" fill="#EFEFEF"/>
<rect x="136.943" y="31.3494" width="7.50309" height="38.8797" transform="rotate(45.6046 136.943 31.3494)" fill="#BCBCBC"/>
<rect x="106.725" y="60.9355" width="7.50309" height="7.16205" transform="rotate(45.6046 106.725 60.9355)" fill="#BCBCBC"/>
<rect x="193.843" y="10.0032" width="3.75155" height="38.8797" transform="rotate(45.6046 193.843 10.0032)" fill="#BCBCBC"/>
<path fill-rule="evenodd" clip-rule="evenodd" d="M168.317 -16.4677C158.461 -17.8939 148.075 -14.8717 140.41 -7.36658C127.355 5.41563 127.134 26.3607 139.916 39.4156C152.699 52.4705 173.644 52.6915 186.698 39.9093C194.253 32.5127 197.51 22.3828 196.437 12.63L175.285 33.3395L149.86 29.9184L146.976 4.42675L168.317 -16.4677Z" fill="#EFEFEF"/>
<path fill-rule="evenodd" clip-rule="evenodd" d="M161.367 48.9823C162.31 49.1868 163.264 49.349 164.226 49.469C163.424 49.4903 162.622 49.4826 161.821 49.4461L161.367 48.9823ZM142.522 36.387C133.652 23.4155 135.79 4.7944 148.326 -7.47961C153.041 -12.0964 158.623 -15.2233 164.433 -16.8415C155.785 -17.037 147.052 -13.8696 140.366 -7.32258C127.325 5.44543 126.972 26.2626 139.513 39.3339L142.522 36.387Z" fill="#BCBCBC"/>
<rect x="328.453" y="382.916" width="17.2651" height="44.8158" transform="rotate(-41 328.453 382.916)" fill="#EFEFEF"/>
<rect x="360.264" y="419.511" width="17.2651" height="7.7142" transform="rotate(-41 360.264 419.511)" fill="#EFEFEF"/>
<rect x="330.381" y="385.134" width="8.08154" height="41.8771" transform="rotate(-41 330.381 385.134)" fill="#BCBCBC"/>
<rect x="360.264" y="419.511" width="8.08154" height="7.7142" transform="rotate(-41 360.264 419.511)" fill="#BCBCBC"/>
<rect x="311.059" y="322.593" width="4.04077" height="41.8771" transform="rotate(-41 311.059 322.593)" fill="#BCBCBC"/>
<path fill-rule="evenodd" clip-rule="evenodd" d="M280.969 348.35C278.807 358.856 281.394 370.215 288.975 378.936C301.885 393.788 324.391 395.361 339.243 382.451C354.095 369.54 355.669 347.034 342.759 332.182C335.287 323.587 324.603 319.439 314.049 319.971L334.967 344.035L329.666 371.154L302.074 372.628L280.969 348.35Z" fill="#EFEFEF"/>
<path fill-rule="evenodd" clip-rule="evenodd" d="M350.898 359.998C351.178 358.997 351.413 357.982 351.603 356.957C351.575 357.82 351.516 358.681 351.425 359.54L350.898 359.998ZM336.153 379.456C321.641 388.166 301.755 384.68 289.358 370.418C284.695 365.054 281.689 358.852 280.319 352.502C279.557 361.788 282.406 371.38 289.019 378.987C301.915 393.823 324.276 395.531 339.13 382.88L336.153 379.456Z" fill="#BCBCBC"/>
<rect x="294.755" y="131.83" width="14.6555" height="38.042" transform="rotate(45.6046 294.755 131.83)" fill="#EFEFEF"/>
<rect x="265.345" y="160.626" width="14.6555" height="6.54821" transform="rotate(45.6046 265.345 160.626)" fill="#EFEFEF"/>
<rect x="292.973" y="133.575" width="6.86003" height="35.5474" transform="rotate(45.6046 292.973 133.575)" fill="#BCBCBC"/>
<rect x="265.345" y="160.626" width="6.86003" height="6.54821" transform="rotate(45.6046 265.345 160.626)" fill="#BCBCBC"/>
<rect x="344.997" y="114.059" width="3.43002" height="35.5474" transform="rotate(45.6046 344.997 114.059)" fill="#BCBCBC"/>
<path fill-rule="evenodd" clip-rule="evenodd" d="M321.658 89.8559C312.647 88.552 303.152 91.3152 296.143 98.177C284.207 109.864 284.005 129.014 295.692 140.95C307.379 152.886 326.529 153.088 338.465 141.401C345.372 134.638 348.349 125.377 347.368 116.46L328.029 135.394L304.783 132.266L302.147 108.96L321.658 89.8559Z" fill="#EFEFEF"/>
<path fill-rule="evenodd" clip-rule="evenodd" d="M315.304 149.697C316.167 149.884 317.039 150.032 317.918 150.142C317.185 150.161 316.451 150.154 315.719 150.121L315.304 149.697ZM298.074 138.181C289.964 126.321 291.919 109.296 303.38 98.0739C307.691 93.853 312.794 90.9941 318.106 89.5145C310.199 89.336 302.216 92.2319 296.102 98.2176C284.179 109.891 283.856 128.924 295.322 140.875L298.074 138.181Z" fill="#BCBCBC"/>
<rect x="472.558" y="63.4578" width="14.8866" height="38.6417" transform="rotate(-133.865 472.558 63.4578)" fill="#EFEFEF"/>
<rect x="502.701" y="34.4856" width="14.8866" height="6.65144" transform="rotate(-133.865 502.701 34.4856)" fill="#EFEFEF"/>
<rect x="474.385" y="61.7024" width="6.96817" height="36.1078" transform="rotate(-133.865 474.385 61.7024)" fill="#BCBCBC"/>
<rect x="502.701" y="34.4856" width="6.96817" height="6.65144" transform="rotate(-133.865 502.701 34.4856)" fill="#BCBCBC"/>
<rect x="421.36" y="81.0364" width="3.48409" height="36.1078" transform="rotate(-133.865 421.36 81.0364)" fill="#BCBCBC"/>
<path fill-rule="evenodd" clip-rule="evenodd" d="M444.838 105.838C453.979 107.248 463.649 104.53 470.832 97.6263C483.066 85.8681 483.451 66.4189 471.693 54.1855C459.934 41.9521 440.485 41.5669 428.252 53.3251C421.173 60.1292 418.061 69.5086 418.974 78.5749L438.794 59.5244L462.376 62.9199L464.836 86.6179L444.838 105.838Z" fill="#EFEFEF"/>
<path fill-rule="evenodd" clip-rule="evenodd" d="M451.855 45.1169C450.981 44.9189 450.096 44.7601 449.204 44.6403C449.949 44.6275 450.694 44.6415 451.438 44.6823L451.855 45.1169ZM469.247 56.9755C477.373 69.0979 475.228 86.3724 463.481 97.6632C459.062 101.91 453.851 104.766 448.442 106.219C456.472 106.475 464.608 103.608 470.874 97.5858C483.094 85.8406 483.601 66.5114 472.067 54.2648L469.247 56.9755Z" fill="#BCBCBC"/>
<rect x="484.651" y="324.77" width="13.1904" height="34.239" transform="rotate(-133.865 484.651 324.77)" fill="#EFEFEF"/>
<rect x="511.359" y="299.099" width="13.1904" height="5.89359" transform="rotate(-133.865 511.359 299.099)" fill="#EFEFEF"/>
<rect x="486.27" y="323.214" width="6.17424" height="31.9938" transform="rotate(-133.865 486.27 323.214)" fill="#BCBCBC"/>
<rect x="511.359" y="299.099" width="6.17424" height="5.89359" transform="rotate(-133.865 511.359 299.099)" fill="#BCBCBC"/>
<rect x="439.286" y="340.346" width="3.08712" height="31.9938" transform="rotate(-133.865 439.286 340.346)" fill="#BCBCBC"/>
<path fill-rule="evenodd" clip-rule="evenodd" d="M460.09 362.322C468.189 363.57 476.757 361.163 483.122 355.045C493.961 344.627 494.302 327.394 483.884 316.554C473.465 305.715 456.232 305.373 445.393 315.792C439.12 321.821 436.363 330.132 437.172 338.165L454.734 321.285L475.63 324.293L477.809 345.291L460.09 362.322Z" fill="#EFEFEF"/>
<path fill-rule="evenodd" clip-rule="evenodd" d="M466.306 308.519C465.532 308.343 464.748 308.203 463.959 308.097C464.618 308.085 465.278 308.098 465.936 308.134L466.306 308.519ZM481.716 319.026C488.916 329.768 487.015 345.074 476.607 355.078C472.692 358.841 468.074 361.372 463.281 362.659C470.396 362.886 477.606 360.346 483.158 355.01C493.986 344.603 494.435 327.476 484.215 316.624L481.716 319.026Z" fill="#BCBCBC"/>
<rect x="468.455" y="508.466" width="16.0293" height="41.6081" transform="rotate(-20.5658 468.455 508.466)" fill="#EFEFEF"/>
<rect x="469.413" y="511.021" width="7.50309" height="38.8797" transform="rotate(-20.5658 469.413 511.021)" fill="#BCBCBC"/>
<rect x="472.876" y="450.346" width="3.75155" height="38.8797" transform="rotate(-20.5658 472.876 450.346)" fill="#BCBCBC"/>
<path fill-rule="evenodd" clip-rule="evenodd" d="M438.348 463.002C433.062 471.441 431.63 482.162 435.399 492.206C441.817 509.313 460.887 517.977 477.993 511.559C495.1 505.141 503.764 486.07 497.346 468.964C493.632 459.065 485.681 451.993 476.326 449.035L486.725 476.751L473.323 498.626L448.84 490.965L438.348 463.002Z" fill="#EFEFEF"/>
<path fill-rule="evenodd" clip-rule="evenodd" d="M495.411 495.803C495.979 495.022 496.513 494.215 497.011 493.384C496.707 494.126 496.376 494.857 496.019 495.575L495.411 495.803ZM476.276 507.952C460.827 510.825 444.657 501.346 438.494 484.92C436.175 478.742 435.57 472.372 436.437 466.404C432.764 474.236 432.134 483.503 435.421 492.265C441.832 509.353 460.732 518.086 477.756 511.896L476.276 507.952Z" fill="#BCBCBC"/>
<rect x="266.231" y="232.092" width="16.0293" height="41.6081" transform="rotate(-76.1675 266.231 232.092)" fill="#EFEFEF"/>
<rect x="309.943" y="242.855" width="16.0293" height="7.16205" transform="rotate(-76.1675 309.943 242.855)" fill="#EFEFEF"/>
<rect x="268.88" y="232.744" width="7.50309" height="38.8797" transform="rotate(-76.1675 268.88 232.744)" fill="#BCBCBC"/>
<rect x="309.943" y="242.855" width="7.50309" height="7.16205" transform="rotate(-76.1675 309.943 242.855)" fill="#BCBCBC"/>
<rect x="220.772" y="195.61" width="3.75155" height="38.8797" transform="rotate(-76.1675 220.772 195.61)" fill="#BCBCBC"/>
<path fill-rule="evenodd" clip-rule="evenodd" d="M211.708 231.25C215.685 240.38 223.723 247.617 234.139 250.182C251.88 254.55 269.803 243.71 274.171 225.969C278.539 208.228 267.698 190.305 249.958 185.937C239.692 183.409 229.365 185.974 221.638 192.022L250.382 199.1L260.861 222.516L240.708 238.39L211.708 231.25Z" fill="#EFEFEF"/>
<path fill-rule="evenodd" clip-rule="evenodd" d="M271.01 202.697C270.687 201.786 270.322 200.889 269.917 200.008C270.358 200.679 270.774 201.365 271.165 202.066L271.01 202.697ZM270.224 225.348C263.867 239.719 246.911 247.707 229.875 243.513C223.468 241.935 217.87 238.836 213.436 234.749C217.823 242.204 225.114 247.96 234.2 250.197C251.921 254.561 269.805 243.9 274.314 226.356L270.224 225.348Z" fill="#BCBCBC"/>
<rect x="171.894" y="129.607" width="16.0293" height="41.6081" transform="rotate(-74.3841 171.894 129.607)" fill="#EFEFEF"/>
<rect x="215.25" y="141.725" width="16.0293" height="7.16205" transform="rotate(-74.3841 215.25 141.725)" fill="#EFEFEF"/>
<rect x="174.521" y="130.341" width="7.5031" height="38.8797" transform="rotate(-74.3841 174.521 130.341)" fill="#BCBCBC"/>
<rect x="215.25" y="141.725" width="7.5031" height="7.16205" transform="rotate(-74.3841 215.25 141.725)" fill="#BCBCBC"/>
<rect x="127.593" y="91.7275" width="3.75155" height="38.8797" transform="rotate(-74.3841 127.593 91.7275)" fill="#BCBCBC"/>
<path fill-rule="evenodd" clip-rule="evenodd" d="M117.424 127.068C121.115 136.317 128.923 143.801 139.255 146.689C156.851 151.607 175.103 141.33 180.021 123.734C184.939 106.137 174.662 87.886 157.065 82.9678C146.883 80.1218 136.482 82.3641 128.571 88.1684L157.08 96.1369L166.825 119.868L146.188 135.107L117.424 127.068Z" fill="#EFEFEF"/>
<path fill-rule="evenodd" clip-rule="evenodd" d="M177.586 100.374C177.291 99.4548 176.955 98.548 176.579 97.6559C176.998 98.3393 177.392 99.0375 177.76 99.7491L177.586 100.374ZM176.096 122.991C169.294 137.157 152.097 144.613 135.201 139.89C128.845 138.114 123.346 134.842 119.041 130.618C123.194 138.207 130.302 144.187 139.315 146.706C156.892 151.619 175.099 141.52 180.152 124.124L176.096 122.991Z" fill="#BCBCBC"/>
<rect x="116.607" y="495.024" width="16.0293" height="41.6081" transform="rotate(67.1285 116.607 495.024)" fill="#EFEFEF"/>
<rect x="114.093" y="496.084" width="7.50309" height="38.8797" transform="rotate(67.1285 114.093 496.084)" fill="#BCBCBC"/>
<rect x="174.857" y="497.103" width="3.75155" height="38.8797" transform="rotate(67.1285 174.857 497.103)" fill="#BCBCBC"/>
<path fill-rule="evenodd" clip-rule="evenodd" d="M160.823 463.112C152.178 458.169 141.408 457.171 131.524 461.34C114.689 468.441 106.799 487.845 113.9 504.679C121.002 521.513 140.405 529.403 157.239 522.302C166.98 518.193 173.727 509.964 176.306 500.498L149.032 512.003L126.635 499.492L133.305 474.72L160.823 463.112Z" fill="#EFEFEF"/>
<path fill-rule="evenodd" clip-rule="evenodd" d="M130.345 521.448C131.148 521.984 131.976 522.485 132.826 522.949C132.072 522.675 131.329 522.374 130.597 522.046L130.345 521.448ZM117.436 502.817C113.944 487.496 122.764 470.957 138.929 464.139C145.009 461.574 151.349 460.713 157.347 461.339C149.374 457.984 140.088 457.727 131.466 461.364C114.65 468.457 106.684 487.693 113.555 504.454L117.436 502.817Z" fill="#BCBCBC"/>
<rect x="46.6165" y="422.903" width="18.607" height="48.2991" transform="rotate(-69.2605 46.6165 422.903)" fill="#EFEFEF"/>
<rect x="95.488" y="441.408" width="18.607" height="8.31378" transform="rotate(-69.2605 95.488 441.408)" fill="#EFEFEF"/>
<rect x="49.5779" y="424.024" width="8.70967" height="45.1319" transform="rotate(-69.2605 49.5779 424.024)" fill="#BCBCBC"/>
<rect x="95.488" y="441.408" width="8.70967" height="8.31378" transform="rotate(-69.2605 95.488 441.408)" fill="#BCBCBC"/>
<rect x="-0.677002" y="374.516" width="4.35483" height="45.1319" transform="rotate(-69.2605 -0.677002 374.516)" fill="#BCBCBC"/>
<path fill-rule="evenodd" clip-rule="evenodd" d="M-16.0972 414.32C-12.7886 425.397 -4.53643 434.86 7.10935 439.269C26.9437 446.78 49.111 436.789 56.6215 416.955C64.1319 397.12 54.1413 374.953 34.307 367.443C22.8295 363.097 10.5709 364.611 0.82314 370.502L32.9586 382.67L41.7655 411.118L16.3253 426.597L-16.0972 414.32Z" fill="#EFEFEF"/>
<path fill-rule="evenodd" clip-rule="evenodd" d="M56.2275 389.694C55.9821 388.6 55.6872 387.516 55.3442 386.445C55.7581 387.279 56.1418 388.128 56.4944 388.99L56.2275 389.694ZM52.1601 415.689C42.8279 431.362 22.1727 438.2 3.1269 430.988C-4.03674 428.276 -10.0545 423.923 -14.5945 418.595C-10.5791 427.798 -2.98117 435.449 7.17779 439.295C26.9901 446.797 49.0873 437.009 56.7329 417.421L52.1601 415.689Z" fill="#BCBCBC"/>
<rect x="256.355" y="20.824" width="16.0293" height="41.6081" transform="rotate(169.983 256.355 20.824)" fill="#EFEFEF"/>
<rect x="255.88" y="18.137" width="7.50309" height="38.8797" transform="rotate(169.983 255.88 18.137)" fill="#BCBCBC"/>
<rect x="241.369" y="77.1516" width="3.75155" height="38.8797" transform="rotate(169.983 241.369 77.1516)" fill="#BCBCBC"/>
<path fill-rule="evenodd" clip-rule="evenodd" d="M277.63 71.0312C284.372 63.7021 287.742 53.4243 285.876 42.8603C282.698 24.8682 265.536 12.8592 247.544 16.0372C229.552 19.2153 217.543 36.3771 220.721 54.3692C222.56 64.7806 229.082 73.1886 237.737 77.8096L232.588 48.6588L249.768 29.6065L272.435 41.6203L277.63 71.0312Z" fill="#EFEFEF"/>
<path fill-rule="evenodd" clip-rule="evenodd" d="M227.537 28.3382C226.835 29.0022 226.161 29.6987 225.519 30.425C225.954 29.7506 226.414 29.0922 226.897 28.4512L227.537 28.3382ZM248.572 19.8977C264.286 19.9013 278.448 32.1799 281.5 49.4567C282.648 55.9548 282.077 62.327 280.132 68.0354C285.176 61.0083 287.492 52.0133 285.865 42.7981C282.69 24.8259 265.709 12.7798 247.839 15.7495L248.572 19.8977Z" fill="#BCBCBC"/>
<rect x="344.781" y="29.6267" width="17.5709" height="45.6096" transform="rotate(-39 344.781 29.6267)" fill="#EFEFEF"/>
<rect x="375.836" y="67.9773" width="17.5709" height="7.85082" transform="rotate(-39 375.836 67.9773)" fill="#EFEFEF"/>
<rect x="346.663" y="31.9514" width="8.22467" height="42.6188" transform="rotate(-39 346.663 31.9514)" fill="#BCBCBC"/>
<rect x="375.836" y="67.9773" width="8.22467" height="7.85082" transform="rotate(-39 375.836 67.9773)" fill="#BCBCBC"/>
<rect x="329.233" y="-32.3455" width="4.11234" height="42.6188" transform="rotate(-39 329.233 -32.3455)" fill="#BCBCBC"/>
<path fill-rule="evenodd" clip-rule="evenodd" d="M297.713 -7.21619C295.141 3.39275 297.369 15.0378 304.769 24.1765C317.373 39.7409 340.208 42.141 355.772 29.5371C371.336 16.9333 373.736 -5.90159 361.133 -21.466C353.839 -30.4726 343.12 -35.0711 332.366 -34.905L352.787 -9.68736L346.433 17.7068L318.316 18.2264L297.713 -7.21619Z" fill="#EFEFEF"/>
<path fill-rule="evenodd" clip-rule="evenodd" d="M368.423 7.11421C368.743 6.10605 369.019 5.08235 369.249 4.04631C369.189 4.92292 369.098 5.79702 368.976 6.66678L368.423 7.11421ZM352.735 26.3812C337.665 34.724 317.564 30.472 305.461 15.5264C300.909 9.9045 298.072 3.49014 296.905 -3.01727C295.8 6.4006 298.356 16.257 304.812 24.2293C317.402 39.7765 340.083 42.3078 355.641 29.9692L352.735 26.3812Z" fill="#BCBCBC"/>
<rect x="427.799" y="202.594" width="19.3347" height="50.1878" transform="rotate(-47.7676 427.799 202.594)" fill="#EFEFEF"/>
<rect x="468.005" y="239.091" width="19.3347" height="8.63889" transform="rotate(-47.7676 468.005 239.091)" fill="#EFEFEF"/>
<rect x="430.236" y="204.805" width="9.05027" height="46.8968" transform="rotate(-47.7676 430.236 204.805)" fill="#BCBCBC"/>
<rect x="468.005" y="239.091" width="9.05027" height="8.63889" transform="rotate(-47.7676 468.005 239.091)" fill="#BCBCBC"/>
<rect x="400.495" y="137.805" width="4.52513" height="46.8968" transform="rotate(-47.7676 400.495 137.805)" fill="#BCBCBC"/>
<path fill-rule="evenodd" clip-rule="evenodd" d="M370.432 170.42C369.414 182.389 373.79 194.68 383.371 203.377C399.689 218.189 424.925 216.97 439.737 200.652C454.55 184.334 453.33 159.098 437.013 144.286C427.57 135.714 415.141 132.511 403.474 134.496L429.911 158.495L427.596 189.352L397.106 194.633L370.432 170.42Z" fill="#EFEFEF"/>
<path fill-rule="evenodd" clip-rule="evenodd" d="M449.735 174.145C449.914 172.994 450.041 171.833 450.118 170.666C450.2 171.631 450.248 172.598 450.261 173.565L449.735 174.145ZM435.905 197.729C420.915 209.33 398.342 208.077 382.673 193.854C376.78 188.504 372.618 182.005 370.258 175.124C370.636 185.551 375.069 195.841 383.427 203.428C399.727 218.224 424.818 217.173 439.667 201.145L435.905 197.729Z" fill="#BCBCBC"/>
<path d="M198.82 462C196.767 462 195.553 460.973 195.18 458.92L157.38 269.64L157.1 268.52C157.1 266.84 158.127 266 160.18 266H194.34C196.58 266 197.793 267.027 197.98 269.08L213.94 369.88C214.127 370.627 214.407 371 214.78 371C215.153 371 215.433 370.627 215.62 369.88L230.74 269.08C230.927 267.027 232.14 266 234.38 266H262.66C264.9 266 266.113 267.027 266.3 269.08L282.82 369.88C283.007 370.627 283.287 371 283.66 371C284.033 371 284.313 370.627 284.5 369.88L298.78 269.08C298.967 267.027 300.18 266 302.42 266H335.46C337.887 266 338.913 267.213 338.54 269.64L302.98 458.92C302.793 460.973 301.58 462 299.34 462H269.1C266.86 462 265.647 460.973 265.46 458.92L248.94 355.32C248.753 354.573 248.473 354.2 248.1 354.2C247.727 354.2 247.447 354.573 247.26 355.32L232.42 458.92C232.233 460.973 231.02 462 228.78 462H198.82ZM405.138 464.24C388.338 464.24 374.805 459.293 364.538 449.4C354.458 439.32 349.418 425.88 349.418 409.08V318.36C349.418 301.747 354.458 288.493 364.538 278.6C374.805 268.707 388.338 263.76 405.138 263.76C422.125 263.76 435.658 268.707 445.738 278.6C456.005 288.493 461.138 301.747 461.138 318.36V321.44C461.138 322.373 460.765 323.213 460.018 323.96C459.458 324.52 458.712 324.8 457.778 324.8L425.018 326.2C422.778 326.2 421.658 325.173 421.658 323.12V315.84C421.658 310.427 420.165 306.04 417.178 302.68C414.192 299.32 410.178 297.64 405.138 297.64C400.285 297.64 396.365 299.32 393.378 302.68C390.392 306.04 388.898 310.427 388.898 315.84V412.44C388.898 417.853 390.392 422.24 393.378 425.6C396.365 428.773 400.285 430.36 405.138 430.36C410.178 430.36 414.192 428.773 417.178 425.6C420.165 422.24 421.658 417.853 421.658 412.44V404.88C421.658 403.947 421.938 403.2 422.498 402.64C423.245 401.893 424.085 401.52 425.018 401.52L457.778 402.92C458.712 402.92 459.458 403.293 460.018 404.04C460.765 404.6 461.138 405.347 461.138 406.28V409.08C461.138 425.88 456.005 439.32 445.738 449.4C435.472 459.293 421.938 464.24 405.138 464.24Z" fill="white"/>
</g>
</svg>
