<svg width="512" height="512" viewBox="0 0 512 512" fill="none" xmlns="http://www.w3.org/2000/svg">
<mask id="mask0_6_309" style="mask-type:alpha" maskUnits="userSpaceOnUse" x="0" y="0" width="512" height="512">
<path d="M49.5 46.5L80 16L87.799 8.20101C93.05 2.94999 100.172 0 107.598 0H128H256H484C499.464 0 512 12.536 512 28V484C512 499.464 499.464 512 484 512H28C12.536 512 0 499.464 0 484V256V128V107.598C0 100.172 2.94999 93.05 8.20101 87.799L15.5 80.5L49.5 46.5Z" fill="#E54D28"/>
</mask>
<g mask="url(#mask0_6_309)">
<path d="M53.0355 50.0355L83.5355 19.5355L91.3345 11.7365C95.6479 7.4232 101.498 5 107.598 5H128H256H484C496.703 5 507 15.2975 507 28V484C507 496.703 496.703 507 484 507H28C15.2975 507 5 496.703 5 484V256V128V107.598C5 101.498 7.42321 95.6479 11.7365 91.3345L19.0355 84.0355L53.0355 50.0355Z" fill="#0061E4" stroke="#0073D2" stroke-width="10"/>
<path d="M198.82 459C196.767 459 195.553 457.973 195.18 455.92L157.38 266.64L157.1 265.52C157.1 263.84 158.127 263 160.18 263H194.34C196.58 263 197.793 264.027 197.98 266.08L213.94 366.88C214.127 367.627 214.407 368 214.78 368C215.153 368 215.433 367.627 215.62 366.88L230.74 266.08C230.927 264.027 232.14 263 234.38 263H262.66C264.9 263 266.113 264.027 266.3 266.08L282.82 366.88C283.007 367.627 283.287 368 283.66 368C284.033 368 284.313 367.627 284.5 366.88L298.78 266.08C298.967 264.027 300.18 263 302.42 263H335.46C337.887 263 338.913 264.213 338.54 266.64L302.98 455.92C302.793 457.973 301.58 459 299.34 459H269.1C266.86 459 265.647 457.973 265.46 455.92L248.94 352.32C248.753 351.573 248.473 351.2 248.1 351.2C247.727 351.2 247.447 351.573 247.26 352.32L232.42 455.92C232.233 457.973 231.02 459 228.78 459H198.82ZM405.138 461.24C388.338 461.24 374.805 456.293 364.538 446.4C354.458 436.32 349.418 422.88 349.418 406.08V315.36C349.418 298.747 354.458 285.493 364.538 275.6C374.805 265.707 388.338 260.76 405.138 260.76C422.125 260.76 435.658 265.707 445.738 275.6C456.005 285.493 461.138 298.747 461.138 315.36V318.44C461.138 319.373 460.765 320.213 460.018 320.96C459.458 321.52 458.712 321.8 457.778 321.8L425.018 323.2C422.778 323.2 421.658 322.173 421.658 320.12V312.84C421.658 307.427 420.165 303.04 417.178 299.68C414.192 296.32 410.178 294.64 405.138 294.64C400.285 294.64 396.365 296.32 393.378 299.68C390.392 303.04 388.898 307.427 388.898 312.84V409.44C388.898 414.853 390.392 419.24 393.378 422.6C396.365 425.773 400.285 427.36 405.138 427.36C410.178 427.36 414.192 425.773 417.178 422.6C420.165 419.24 421.658 414.853 421.658 409.44V401.88C421.658 400.947 421.938 400.2 422.498 399.64C423.245 398.893 424.085 398.52 425.018 398.52L457.778 399.92C458.712 399.92 459.458 400.293 460.018 401.04C460.765 401.6 461.138 402.347 461.138 403.28V406.08C461.138 422.88 456.005 436.32 445.738 446.4C435.472 456.293 421.938 461.24 405.138 461.24Z" fill="white"/>
<g filter="url(#filter0_f_6_309)">
<path fill-rule="evenodd" clip-rule="evenodd" d="M485.845 205.878C589.591 180.13 658.342 135.097 658.342 83.8487C658.342 3.85096 490.82 -61 284.171 -61C77.522 -61 -90 3.85096 -90 83.8487C-90 126.562 -42.2423 164.957 33.7295 191.469C64.5488 136.023 152.639 96 256.5 96C369.16 96 463.264 143.091 485.845 205.878Z" fill="url(#paint0_linear_6_309)"/>
</g>
</g>
<defs>
<filter id="filter0_f_6_309" x="-265" y="-236" width="1098.34" height="616.878" filterUnits="userSpaceOnUse" color-interpolation-filters="sRGB">
<feFlood flood-opacity="0" result="BackgroundImageFix"/>
<feBlend mode="normal" in="SourceGraphic" in2="BackgroundImageFix" result="shape"/>
<feGaussianBlur stdDeviation="87.5" result="effect1_foregroundBlur_6_309"/>
</filter>
<linearGradient id="paint0_linear_6_309" x1="302.341" y1="202.644" x2="302.341" y2="-61" gradientUnits="userSpaceOnUse">
<stop stop-color="#9ACAEE"/>
<stop offset="1" stop-color="white"/>
</linearGradient>
</defs>
</svg>
