<svg width="24" height="24" viewBox="0 0 24 24" fill="none" xmlns="http://www.w3.org/2000/svg">
<mask id="mask0_6_18" style="mask-type:alpha" maskUnits="userSpaceOnUse" x="0" y="0" width="24" height="24">
<path d="M2.32031 2.17969L3.75 0.75L3.91421 0.585787C4.28929 0.210714 4.79799 0 5.32843 0H6H12H22C23.1046 0 24 0.895431 24 2V22C24 23.1046 23.1046 24 22 24H2C0.89543 24 0 23.1046 0 22V12V6V5.32843C0 4.79799 0.210713 4.28929 0.585786 3.91421L0.726562 3.77344L2.32031 2.17969Z" fill="#E54D28"/>
</mask>
<g mask="url(#mask0_6_18)">
<path d="M2.32031 2.17969L3.75 0.75L3.91421 0.585787C4.28929 0.210714 4.79799 0 5.32843 0H6H12H22C23.1046 0 24 0.895431 24 2V22C24 23.1046 23.1046 24 22 24H2C0.89543 24 0 23.1046 0 22V12V6V5.32843C0 4.79799 0.210713 4.28929 0.585786 3.91421L0.726562 3.77344L2.32031 2.17969Z" fill="#E54D28"/>
<path d="M12.69 22C12.6167 22 12.5733 21.9633 12.56 21.89L11.21 15.13L11.2 15.09C11.2 15.03 11.2367 15 11.31 15H12.53C12.61 15 12.6533 15.0367 12.66 15.11L13.23 18.71C13.2367 18.7367 13.2467 18.75 13.26 18.75C13.2733 18.75 13.2833 18.7367 13.29 18.71L13.83 15.11C13.8367 15.0367 13.88 15 13.96 15H14.97C15.05 15 15.0933 15.0367 15.1 15.11L15.69 18.71C15.6967 18.7367 15.7067 18.75 15.72 18.75C15.7333 18.75 15.7433 18.7367 15.75 18.71L16.26 15.11C16.2667 15.0367 16.31 15 16.39 15H17.57C17.6567 15 17.6933 15.0433 17.68 15.13L16.41 21.89C16.4033 21.9633 16.36 22 16.28 22H15.2C15.12 22 15.0767 21.9633 15.07 21.89L14.48 18.19C14.4733 18.1633 14.4633 18.15 14.45 18.15C14.4367 18.15 14.4267 18.1633 14.42 18.19L13.89 21.89C13.8833 21.9633 13.84 22 13.76 22H12.69ZM20.0585 22.08C19.4585 22.08 18.9752 21.9033 18.6085 21.55C18.2485 21.19 18.0685 20.71 18.0685 20.11V16.87C18.0685 16.2767 18.2485 15.8033 18.6085 15.45C18.9752 15.0967 19.4585 14.92 20.0585 14.92C20.6652 14.92 21.1485 15.0967 21.5085 15.45C21.8752 15.8033 22.0585 16.2767 22.0585 16.87V16.98C22.0585 17.0133 22.0452 17.0433 22.0185 17.07C21.9985 17.09 21.9718 17.1 21.9385 17.1L20.7685 17.15C20.6885 17.15 20.6485 17.1133 20.6485 17.04V16.78C20.6485 16.5867 20.5952 16.43 20.4885 16.31C20.3818 16.19 20.2385 16.13 20.0585 16.13C19.8852 16.13 19.7452 16.19 19.6385 16.31C19.5318 16.43 19.4785 16.5867 19.4785 16.78V20.23C19.4785 20.4233 19.5318 20.58 19.6385 20.7C19.7452 20.8133 19.8852 20.87 20.0585 20.87C20.2385 20.87 20.3818 20.8133 20.4885 20.7C20.5952 20.58 20.6485 20.4233 20.6485 20.23V19.96C20.6485 19.9267 20.6585 19.9 20.6785 19.88C20.7052 19.8533 20.7352 19.84 20.7685 19.84L21.9385 19.89C21.9718 19.89 21.9985 19.9033 22.0185 19.93C22.0452 19.95 22.0585 19.9767 22.0585 20.01V20.11C22.0585 20.71 21.8752 21.19 21.5085 21.55C21.1418 21.9033 20.6585 22.08 20.0585 22.08Z" fill="white"/>
</g>
</svg>
