<svg width="16" height="16" viewBox="0 0 16 16" fill="none" xmlns="http://www.w3.org/2000/svg">
<mask id="mask0_6_21" style="mask-type:alpha" maskUnits="userSpaceOnUse" x="0" y="0" width="16" height="16">
<path d="M1.54688 1.45312L2.5 0.5L2.70711 0.292893C2.89464 0.105357 3.149 0 3.41421 0H4H8H15C15.5523 0 16 0.447715 16 1V15C16 15.5523 15.5523 16 15 16H1C0.447715 16 0 15.5523 0 15V8V4V3.41421C0 3.149 0.105357 2.89464 0.292893 2.70711L0.484375 2.51562L1.54688 1.45312Z" fill="#E54D28"/>
</mask>
<g mask="url(#mask0_6_21)">
<path d="M1.54688 1.45312L2.5 0.5L2.70711 0.292893C2.89464 0.105357 3.149 0 3.41421 0H4H8H15C15.5523 0 16 0.447715 16 1V15C16 15.5523 15.5523 16 15 16H1C0.447715 16 0 15.5523 0 15V8V4V3.41421C0 3.149 0.105357 2.89464 0.292893 2.70711L0.484375 2.51562L1.54688 1.45312Z" fill="#E54D28"/>
<path d="M8.183 15C8.13167 15 8.10133 14.9743 8.092 14.923L7.147 10.191L7.14 10.163C7.14 10.121 7.16567 10.1 7.217 10.1H8.071C8.127 10.1 8.15733 10.1257 8.162 10.177L8.561 12.697C8.56567 12.7157 8.57267 12.725 8.582 12.725C8.59133 12.725 8.59833 12.7157 8.603 12.697L8.981 10.177C8.98567 10.1257 9.016 10.1 9.072 10.1H9.779C9.835 10.1 9.86533 10.1257 9.87 10.177L10.283 12.697C10.2877 12.7157 10.2947 12.725 10.304 12.725C10.3133 12.725 10.3203 12.7157 10.325 12.697L10.682 10.177C10.6867 10.1257 10.717 10.1 10.773 10.1H11.599C11.6597 10.1 11.6853 10.1303 11.676 10.191L10.787 14.923C10.7823 14.9743 10.752 15 10.696 15H9.94C9.884 15 9.85367 14.9743 9.849 14.923L9.436 12.333C9.43133 12.3143 9.42433 12.305 9.415 12.305C9.40567 12.305 9.39867 12.3143 9.394 12.333L9.023 14.923C9.01833 14.9743 8.988 15 8.932 15H8.183ZM13.341 15.056C12.921 15.056 12.5826 14.9323 12.326 14.685C12.074 14.433 11.948 14.097 11.948 13.677V11.409C11.948 10.9937 12.074 10.6623 12.326 10.415C12.5826 10.1677 12.921 10.044 13.341 10.044C13.7656 10.044 14.104 10.1677 14.356 10.415C14.6126 10.6623 14.741 10.9937 14.741 11.409V11.486C14.741 11.5093 14.7316 11.5303 14.713 11.549C14.699 11.563 14.6803 11.57 14.657 11.57L13.838 11.605C13.782 11.605 13.754 11.5793 13.754 11.528V11.346C13.754 11.2107 13.7166 11.101 13.642 11.017C13.5673 10.933 13.467 10.891 13.341 10.891C13.2196 10.891 13.1216 10.933 13.047 11.017C12.9723 11.101 12.935 11.2107 12.935 11.346V13.761C12.935 13.8963 12.9723 14.006 13.047 14.09C13.1216 14.1693 13.2196 14.209 13.341 14.209C13.467 14.209 13.5673 14.1693 13.642 14.09C13.7166 14.006 13.754 13.8963 13.754 13.761V13.572C13.754 13.5487 13.761 13.53 13.775 13.516C13.7936 13.4973 13.8146 13.488 13.838 13.488L14.657 13.523C14.6803 13.523 14.699 13.5323 14.713 13.551C14.7316 13.565 14.741 13.5837 14.741 13.607V13.677C14.741 14.097 14.6126 14.433 14.356 14.685C14.0993 14.9323 13.761 15.056 13.341 15.056Z" fill="white"/>
</g>
</svg>
