<svg width="129" height="128" viewBox="0 0 129 128" fill="none" xmlns="http://www.w3.org/2000/svg">
<mask id="mask0_6_12" style="mask-type:alpha" maskUnits="userSpaceOnUse" x="0" y="0" width="129" height="128">
<path d="M12.875 11.625L20.5 4L20.9853 3.51472C23.2357 1.26428 26.288 0 29.4706 0H32.5H64.5H116.5C123.127 0 128.5 5.37258 128.5 12V116C128.5 122.627 123.127 128 116.5 128H12.5C5.87258 128 0.5 122.627 0.5 116V64V32V28.9706C0.5 25.788 1.76428 22.7357 4.01472 20.4853L4.375 20.125L12.875 11.625Z" fill="#E54D28"/>
</mask>
<g mask="url(#mask0_6_12)">
<path d="M12.875 11.625L20.5 4L20.9853 3.51472C23.2357 1.26428 26.288 0 29.4706 0H32.5H64.5H116.5C123.127 0 128.5 5.37258 128.5 12V116C128.5 122.627 123.127 128 116.5 128H12.5C5.87258 128 0.5 122.627 0.5 116V64V32V28.9706C0.5 25.788 1.76428 22.7357 4.01472 20.4853L4.375 20.125L12.875 11.625Z" fill="#E54D28"/>
<path d="M61.64 118C61.2 118 60.94 117.78 60.86 117.34L52.76 76.78L52.7 76.54C52.7 76.18 52.92 76 53.36 76H60.68C61.16 76 61.42 76.22 61.46 76.66L64.88 98.26C64.92 98.42 64.98 98.5 65.06 98.5C65.14 98.5 65.2 98.42 65.24 98.26L68.48 76.66C68.52 76.22 68.78 76 69.26 76H75.32C75.8 76 76.06 76.22 76.1 76.66L79.64 98.26C79.68 98.42 79.74 98.5 79.82 98.5C79.9 98.5 79.96 98.42 80 98.26L83.06 76.66C83.1 76.22 83.36 76 83.84 76H90.92C91.44 76 91.66 76.26 91.58 76.78L83.96 117.34C83.92 117.78 83.66 118 83.18 118H76.7C76.22 118 75.96 117.78 75.92 117.34L72.38 95.14C72.34 94.98 72.28 94.9 72.2 94.9C72.12 94.9 72.06 94.98 72.02 95.14L68.84 117.34C68.8 117.78 68.54 118 68.06 118H61.64ZM105.851 118.48C102.251 118.48 99.3511 117.42 97.1511 115.3C94.9911 113.14 93.9111 110.26 93.9111 106.66V87.22C93.9111 83.66 94.9911 80.82 97.1511 78.7C99.3511 76.58 102.251 75.52 105.851 75.52C109.491 75.52 112.391 76.58 114.551 78.7C116.751 80.82 117.851 83.66 117.851 87.22V87.88C117.851 88.08 117.771 88.26 117.611 88.42C117.491 88.54 117.331 88.6 117.131 88.6L110.111 88.9C109.631 88.9 109.391 88.68 109.391 88.24V86.68C109.391 85.52 109.071 84.58 108.431 83.86C107.791 83.14 106.931 82.78 105.851 82.78C104.811 82.78 103.971 83.14 103.331 83.86C102.691 84.58 102.371 85.52 102.371 86.68V107.38C102.371 108.54 102.691 109.48 103.331 110.2C103.971 110.88 104.811 111.22 105.851 111.22C106.931 111.22 107.791 110.88 108.431 110.2C109.071 109.48 109.391 108.54 109.391 107.38V105.76C109.391 105.56 109.451 105.4 109.571 105.28C109.731 105.12 109.911 105.04 110.111 105.04L117.131 105.34C117.331 105.34 117.491 105.42 117.611 105.58C117.771 105.7 117.851 105.86 117.851 106.06V106.66C117.851 110.26 116.751 113.14 114.551 115.3C112.351 117.42 109.451 118.48 105.851 118.48Z" fill="white"/>
</g>
</svg>
