<svg width="512" height="512" viewBox="0 0 512 512" fill="none" xmlns="http://www.w3.org/2000/svg">
<mask id="mask0_6_1047" style="mask-type:alpha" maskUnits="userSpaceOnUse" x="0" y="0" width="512" height="512">
<path d="M49.5 46.5L80 16L87.799 8.20101C93.05 2.94999 100.172 0 107.598 0H128H256H484C499.464 0 512 12.536 512 28V484C512 499.464 499.464 512 484 512H28C12.536 512 0 499.464 0 484V256V128V107.598C0 100.172 2.94999 93.05 8.20101 87.799L15.5 80.5L49.5 46.5Z" fill="#E54D28"/>
</mask>
<g mask="url(#mask0_6_1047)">
<path d="M49.5 46.5L80 16L87.799 8.20101C93.05 2.94999 100.172 0 107.598 0H128H256H484C499.464 0 512 12.536 512 28V484C512 499.464 499.464 512 484 512H28C12.536 512 0 499.464 0 484V256V128V107.598C0 100.172 2.94999 93.05 8.20101 87.799L15.5 80.5L49.5 46.5Z" fill="white"/>
<path d="M199.82 462C197.767 462 196.553 460.973 196.18 458.92L158.38 269.64L158.1 268.52C158.1 266.84 159.127 266 161.18 266H195.34C197.58 266 198.793 267.027 198.98 269.08L214.94 369.88C215.127 370.627 215.407 371 215.78 371C216.153 371 216.433 370.627 216.62 369.88L231.74 269.08C231.927 267.027 233.14 266 235.38 266H263.66C265.9 266 267.113 267.027 267.3 269.08L283.82 369.88C284.007 370.627 284.287 371 284.66 371C285.033 371 285.313 370.627 285.5 369.88L299.78 269.08C299.967 267.027 301.18 266 303.42 266H336.46C338.887 266 339.913 267.213 339.54 269.64L303.98 458.92C303.793 460.973 302.58 462 300.34 462H270.1C267.86 462 266.647 460.973 266.46 458.92L249.94 355.32C249.753 354.573 249.473 354.2 249.1 354.2C248.727 354.2 248.447 354.573 248.26 355.32L233.42 458.92C233.233 460.973 232.02 462 229.78 462H199.82ZM406.138 464.24C389.338 464.24 375.805 459.293 365.538 449.4C355.458 439.32 350.418 425.88 350.418 409.08V318.36C350.418 301.747 355.458 288.493 365.538 278.6C375.805 268.707 389.338 263.76 406.138 263.76C423.125 263.76 436.658 268.707 446.738 278.6C457.005 288.493 462.138 301.747 462.138 318.36V321.44C462.138 322.373 461.765 323.213 461.018 323.96C460.458 324.52 459.712 324.8 458.778 324.8L426.018 326.2C423.778 326.2 422.658 325.173 422.658 323.12V315.84C422.658 310.427 421.165 306.04 418.178 302.68C415.192 299.32 411.178 297.64 406.138 297.64C401.285 297.64 397.365 299.32 394.378 302.68C391.392 306.04 389.898 310.427 389.898 315.84V412.44C389.898 417.853 391.392 422.24 394.378 425.6C397.365 428.773 401.285 430.36 406.138 430.36C411.178 430.36 415.192 428.773 418.178 425.6C421.165 422.24 422.658 417.853 422.658 412.44V404.88C422.658 403.947 422.938 403.2 423.498 402.64C424.245 401.893 425.085 401.52 426.018 401.52L458.778 402.92C459.712 402.92 460.458 403.293 461.018 404.04C461.765 404.6 462.138 405.347 462.138 406.28V409.08C462.138 425.88 457.005 439.32 446.738 449.4C436.472 459.293 422.938 464.24 406.138 464.24Z" fill="black"/>
</g>
</svg>
