<svg width="33" height="32" viewBox="0 0 33 32" fill="none" xmlns="http://www.w3.org/2000/svg">
<mask id="mask0_6_1063" style="mask-type:alpha" maskUnits="userSpaceOnUse" x="0" y="0" width="33" height="32">
<path d="M3.59375 2.90625L5.5 1C6.14029 0.359711 7.00871 0 7.91421 0H8.5H16.5H28.5C30.7091 0 32.5 1.79086 32.5 4V28C32.5 30.2091 30.7091 32 28.5 32H4.5C2.29086 32 0.5 30.2091 0.5 28V16V8V7.37002C0.5 6.49281 0.84847 5.65153 1.46875 5.03125L3.59375 2.90625Z" fill="#E54D28"/>
</mask>
<g mask="url(#mask0_6_1063)">
<path d="M3.59375 2.90625L5.5 1C6.14029 0.359711 7.00871 0 7.91421 0H8.5H16.5H28.5C30.7091 0 32.5 1.79086 32.5 4V28C32.5 30.2091 30.7091 32 28.5 32H4.5C2.29086 32 0.5 30.2091 0.5 28V16V8V7.37002C0.5 6.49281 0.84847 5.65153 1.46875 5.03125L3.59375 2.90625Z" fill="white"/>
<path d="M18.528 29C18.44 29 18.388 28.956 18.372 28.868L16.752 20.756L16.74 20.708C16.74 20.636 16.784 20.6 16.872 20.6H18.336C18.432 20.6 18.484 20.644 18.492 20.732L19.176 25.052C19.184 25.084 19.196 25.1 19.212 25.1C19.228 25.1 19.24 25.084 19.248 25.052L19.896 20.732C19.904 20.644 19.956 20.6 20.052 20.6H21.264C21.36 20.6 21.412 20.644 21.42 20.732L22.128 25.052C22.136 25.084 22.148 25.1 22.164 25.1C22.18 25.1 22.192 25.084 22.2 25.052L22.812 20.732C22.82 20.644 22.872 20.6 22.968 20.6H24.384C24.488 20.6 24.532 20.652 24.516 20.756L22.992 28.868C22.984 28.956 22.932 29 22.836 29H21.54C21.444 29 21.392 28.956 21.384 28.868L20.676 24.428C20.668 24.396 20.656 24.38 20.64 24.38C20.624 24.38 20.612 24.396 20.604 24.428L19.968 28.868C19.96 28.956 19.908 29 19.812 29H18.528ZM27.3702 29.096C26.6502 29.096 26.0702 28.884 25.6302 28.46C25.1982 28.028 24.9822 27.452 24.9822 26.732V22.844C24.9822 22.132 25.1982 21.564 25.6302 21.14C26.0702 20.716 26.6502 20.504 27.3702 20.504C28.0982 20.504 28.6782 20.716 29.1102 21.14C29.5502 21.564 29.7702 22.132 29.7702 22.844V22.976C29.7702 23.016 29.7542 23.052 29.7222 23.084C29.6982 23.108 29.6662 23.12 29.6262 23.12L28.2222 23.18C28.1262 23.18 28.0782 23.136 28.0782 23.048V22.736C28.0782 22.504 28.0142 22.316 27.8862 22.172C27.7582 22.028 27.5862 21.956 27.3702 21.956C27.1622 21.956 26.9942 22.028 26.8662 22.172C26.7382 22.316 26.6742 22.504 26.6742 22.736V26.876C26.6742 27.108 26.7382 27.296 26.8662 27.44C26.9942 27.576 27.1622 27.644 27.3702 27.644C27.5862 27.644 27.7582 27.576 27.8862 27.44C28.0142 27.296 28.0782 27.108 28.0782 26.876V26.552C28.0782 26.512 28.0902 26.48 28.1142 26.456C28.1462 26.424 28.1822 26.408 28.2222 26.408L29.6262 26.468C29.6662 26.468 29.6982 26.484 29.7222 26.516C29.7542 26.54 29.7702 26.572 29.7702 26.612V26.732C29.7702 27.452 29.5502 28.028 29.1102 28.46C28.6702 28.884 28.0902 29.096 27.3702 29.096Z" fill="black"/>
</g>
</svg>
