<svg width="512" height="512" viewBox="0 0 512 512" fill="none" xmlns="http://www.w3.org/2000/svg">
<mask id="mask0_6_582" style="mask-type:alpha" maskUnits="userSpaceOnUse" x="0" y="0" width="512" height="512">
<path d="M49.5 46.5L80 16L87.799 8.20101C93.05 2.94999 100.172 0 107.598 0H128H256H484C499.464 0 512 12.536 512 28V484C512 499.464 499.464 512 484 512H28C12.536 512 0 499.464 0 484V256V128V107.598C0 100.172 2.94999 93.05 8.20101 87.799L15.5 80.5L49.5 46.5Z" fill="#E54D28"/>
</mask>
<g mask="url(#mask0_6_582)">
<path fill-rule="evenodd" clip-rule="evenodd" d="M285.97 51.0662C314.169 53.6439 341.806 63.0138 366.215 79.0553L452.77 0H256H128H107.598C100.172 0 93.05 2.94999 87.799 8.20101L80 16L49.5 46.5L15.5 80.5L8.20101 87.799C2.94999 93.05 0 100.172 0 107.598V128V256V484C0 499.464 12.536 512 28 512H484C499.464 512 512 499.464 512 484V61.0219L424.765 140.697C462.703 210.07 449.774 299.108 388.504 355.07C388.464 355.107 388.423 355.144 388.383 355.181C388.342 355.218 388.3 355.256 388.259 355.294C371.46 370.637 352.488 382.1 332.443 389.733C308.901 398.745 283.899 402.506 259.207 401.089C259.458 401.029 259.708 400.968 259.959 400.906C252.831 400.5 245.727 399.662 238.69 398.392L355.629 291.585L345.036 155.958L235.389 137.311L108.276 253.41L95.0758 238.957L95.0162 239.012L95.0064 238.881L94.8599 238.721L94.9862 238.605C91.2221 186.851 110.355 133.943 151.643 96.2317C187.158 63.7943 232.388 48.6986 276.929 50.4733C275.455 50.1978 273.976 49.9412 272.494 49.7036C276.749 49.7383 281 49.9263 285.24 50.2674L285.97 51.0662Z" fill="#E54D28"/>
<path d="M198.82 462C196.767 462 195.553 460.973 195.18 458.92L157.38 269.64L157.1 268.52C157.1 266.84 158.127 266 160.18 266H194.34C196.58 266 197.793 267.027 197.98 269.08L213.94 369.88C214.127 370.627 214.407 371 214.78 371C215.153 371 215.433 370.627 215.62 369.88L230.74 269.08C230.927 267.027 232.14 266 234.38 266H262.66C264.9 266 266.113 267.027 266.3 269.08L282.82 369.88C283.007 370.627 283.287 371 283.66 371C284.033 371 284.313 370.627 284.5 369.88L298.78 269.08C298.967 267.027 300.18 266 302.42 266H335.46C337.887 266 338.913 267.213 338.54 269.64L302.98 458.92C302.793 460.973 301.58 462 299.34 462H269.1C266.86 462 265.647 460.973 265.46 458.92L248.94 355.32C248.753 354.573 248.473 354.2 248.1 354.2C247.727 354.2 247.447 354.573 247.26 355.32L232.42 458.92C232.233 460.973 231.02 462 228.78 462H198.82ZM405.138 464.24C388.338 464.24 374.805 459.293 364.538 449.4C354.458 439.32 349.418 425.88 349.418 409.08V318.36C349.418 301.747 354.458 288.493 364.538 278.6C374.805 268.707 388.338 263.76 405.138 263.76C422.125 263.76 435.658 268.707 445.738 278.6C456.005 288.493 461.138 301.747 461.138 318.36V321.44C461.138 322.373 460.765 323.213 460.018 323.96C459.458 324.52 458.712 324.8 457.778 324.8L425.018 326.2C422.778 326.2 421.658 325.173 421.658 323.12V315.84C421.658 310.427 420.165 306.04 417.178 302.68C414.192 299.32 410.178 297.64 405.138 297.64C400.285 297.64 396.365 299.32 393.378 302.68C390.392 306.04 388.898 310.427 388.898 315.84V412.44C388.898 417.853 390.392 422.24 393.378 425.6C396.365 428.773 400.285 430.36 405.138 430.36C410.178 430.36 414.192 428.773 417.178 425.6C420.165 422.24 421.658 417.853 421.658 412.44V404.88C421.658 403.947 421.938 403.2 422.498 402.64C423.245 401.893 424.085 401.52 425.018 401.52L457.778 402.92C458.712 402.92 459.458 403.293 460.018 404.04C460.765 404.6 461.138 405.347 461.138 406.28V409.08C461.138 425.88 456.005 439.32 445.738 449.4C435.472 459.293 421.938 464.24 405.138 464.24Z" fill="white"/>
</g>
</svg>
