<svg width="33" height="32" viewBox="0 0 33 32" fill="none" xmlns="http://www.w3.org/2000/svg">
<mask id="mask0_6_946" style="mask-type:alpha" maskUnits="userSpaceOnUse" x="0" y="0" width="33" height="32">
<path d="M3.59375 2.90625L5.5 1C6.14029 0.359711 7.00871 0 7.91421 0H8.5H16.5H28.5C30.7091 0 32.5 1.79086 32.5 4V28C32.5 30.2091 30.7091 32 28.5 32H4.5C2.29086 32 0.5 30.2091 0.5 28V16V8V7.37002C0.5 6.49281 0.84847 5.65153 1.46875 5.03125L3.59375 2.90625Z" fill="#E54D28"/>
</mask>
<g mask="url(#mask0_6_946)">
<path d="M3.59375 2.90625L5.5 1C6.14029 0.359711 7.00871 0 7.91421 0H8.5H16.5H28.5C30.7091 0 32.5 1.79086 32.5 4V28C32.5 30.2091 30.7091 32 28.5 32H4.5C2.29086 32 0.5 30.2091 0.5 28V16V8V7.37002C0.5 6.49281 0.84847 5.65153 1.46875 5.03125L3.59375 2.90625Z" fill="black"/>
<path d="M21.332 29.096C20.572 29.096 19.964 28.872 19.508 28.424C19.052 27.976 18.824 27.38 18.824 26.636V22.952C18.824 22.2 19.052 21.604 19.508 21.164C19.964 20.724 20.572 20.504 21.332 20.504C22.092 20.504 22.7 20.724 23.156 21.164C23.62 21.604 23.852 22.2 23.852 22.952V23.06C23.852 23.1 23.836 23.136 23.804 23.168C23.78 23.192 23.748 23.204 23.708 23.204L22.004 23.276C21.908 23.276 21.86 23.228 21.86 23.132V22.808C21.86 22.624 21.812 22.48 21.716 22.376C21.62 22.264 21.492 22.208 21.332 22.208C21.18 22.208 21.056 22.264 20.96 22.376C20.864 22.48 20.816 22.624 20.816 22.808V26.804C20.816 26.98 20.864 27.124 20.96 27.236C21.056 27.34 21.18 27.392 21.332 27.392C21.492 27.392 21.62 27.34 21.716 27.236C21.812 27.124 21.86 26.98 21.86 26.804V26.456C21.86 26.416 21.872 26.384 21.896 26.36C21.928 26.328 21.964 26.312 22.004 26.312L23.708 26.384C23.748 26.384 23.78 26.4 23.804 26.432C23.836 26.456 23.852 26.488 23.852 26.528V26.636C23.852 27.38 23.62 27.976 23.156 28.424C22.7 28.872 22.092 29.096 21.332 29.096ZM29.1647 22.16C29.1647 22.2 29.1487 22.236 29.1167 22.268C29.0927 22.292 29.0607 22.304 29.0207 22.304H26.6087C26.5687 22.304 26.5487 22.324 26.5487 22.364V23.876C26.5487 23.916 26.5687 23.936 26.6087 23.936H27.9287C27.9687 23.936 28.0007 23.952 28.0247 23.984C28.0567 24.008 28.0727 24.04 28.0727 24.08V25.508C28.0727 25.548 28.0567 25.584 28.0247 25.616C28.0007 25.64 27.9687 25.652 27.9287 25.652H26.6087C26.5687 25.652 26.5487 25.672 26.5487 25.712V27.236C26.5487 27.276 26.5687 27.296 26.6087 27.296H29.0207C29.0607 27.296 29.0927 27.312 29.1167 27.344C29.1487 27.368 29.1647 27.4 29.1647 27.44V28.856C29.1647 28.896 29.1487 28.932 29.1167 28.964C29.0927 28.988 29.0607 29 29.0207 29H24.7007C24.6607 29 24.6247 28.988 24.5927 28.964C24.5687 28.932 24.5567 28.896 24.5567 28.856V20.744C24.5567 20.704 24.5687 20.672 24.5927 20.648C24.6247 20.616 24.6607 20.6 24.7007 20.6H29.0207C29.0607 20.6 29.0927 20.616 29.1167 20.648C29.1487 20.672 29.1647 20.704 29.1647 20.744V22.16Z" fill="white"/>
</g>
</svg>
