<svg width="512" height="512" viewBox="0 0 512 512" fill="none" xmlns="http://www.w3.org/2000/svg">
<mask id="mask0_6_930" style="mask-type:alpha" maskUnits="userSpaceOnUse" x="0" y="0" width="512" height="512">
<path d="M49.5 46.5L80 16L87.799 8.20101C93.05 2.94999 100.172 0 107.598 0H128H256H484C499.464 0 512 12.536 512 28V484C512 499.464 499.464 512 484 512H28C12.536 512 0 499.464 0 484V256V128V107.598C0 100.172 2.94999 93.05 8.20101 87.799L15.5 80.5L49.5 46.5Z" fill="#E54D28"/>
</mask>
<g mask="url(#mask0_6_930)">
<path d="M49.5 46.5L80 16L87.799 8.20101C93.05 2.94999 100.172 0 107.598 0H128H256H484C499.464 0 512 12.536 512 28V484C512 499.464 499.464 512 484 512H28C12.536 512 0 499.464 0 484V256V128V107.598C0 100.172 2.94999 93.05 8.20101 87.799L15.5 80.5L49.5 46.5Z" fill="black"/>
<path d="M279.58 464.24C261.847 464.24 247.66 459.013 237.02 448.56C226.38 438.107 221.06 424.2 221.06 406.84V320.88C221.06 303.333 226.38 289.427 237.02 279.16C247.66 268.893 261.847 263.76 279.58 263.76C297.313 263.76 311.5 268.893 322.14 279.16C332.967 289.427 338.38 303.333 338.38 320.88V323.4C338.38 324.333 338.007 325.173 337.26 325.92C336.7 326.48 335.953 326.76 335.02 326.76L295.26 328.44C293.02 328.44 291.9 327.32 291.9 325.08V317.52C291.9 313.227 290.78 309.867 288.54 307.44C286.3 304.827 283.313 303.52 279.58 303.52C276.033 303.52 273.14 304.827 270.9 307.44C268.66 309.867 267.54 313.227 267.54 317.52V410.76C267.54 414.867 268.66 418.227 270.9 420.84C273.14 423.267 276.033 424.48 279.58 424.48C283.313 424.48 286.3 423.267 288.54 420.84C290.78 418.227 291.9 414.867 291.9 410.76V402.64C291.9 401.707 292.18 400.96 292.74 400.4C293.487 399.653 294.327 399.28 295.26 399.28L335.02 400.96C335.953 400.96 336.7 401.333 337.26 402.08C338.007 402.64 338.38 403.387 338.38 404.32V406.84C338.38 424.2 332.967 438.107 322.14 448.56C311.5 459.013 297.313 464.24 279.58 464.24ZM462.343 302.4C462.343 303.333 461.97 304.173 461.223 304.92C460.663 305.48 459.917 305.76 458.983 305.76H402.703C401.77 305.76 401.303 306.227 401.303 307.16V342.44C401.303 343.373 401.77 343.84 402.703 343.84H433.503C434.437 343.84 435.183 344.213 435.743 344.96C436.49 345.52 436.863 346.267 436.863 347.2V380.52C436.863 381.453 436.49 382.293 435.743 383.04C435.183 383.6 434.437 383.88 433.503 383.88H402.703C401.77 383.88 401.303 384.347 401.303 385.28V420.84C401.303 421.773 401.77 422.24 402.703 422.24H458.983C459.917 422.24 460.663 422.613 461.223 423.36C461.97 423.92 462.343 424.667 462.343 425.6V458.64C462.343 459.573 461.97 460.413 461.223 461.16C460.663 461.72 459.917 462 458.983 462H358.183C357.25 462 356.41 461.72 355.663 461.16C355.103 460.413 354.823 459.573 354.823 458.64V269.36C354.823 268.427 355.103 267.68 355.663 267.12C356.41 266.373 357.25 266 358.183 266H458.983C459.917 266 460.663 266.373 461.223 267.12C461.97 267.68 462.343 268.427 462.343 269.36V302.4Z" fill="white"/>
</g>
</svg>
