<svg width="49" height="48" viewBox="0 0 49 48" fill="none" xmlns="http://www.w3.org/2000/svg">
<mask id="mask0_6_942" style="mask-type:alpha" maskUnits="userSpaceOnUse" x="0" y="0" width="49" height="48">
<path d="M5.14062 4.35938L8 1.5C8.96043 0.539566 10.2631 0 11.6213 0H12.5H24.5H42.5C45.8137 0 48.5 2.68629 48.5 6V42C48.5 45.3137 45.8137 48 42.5 48H6.5C3.18629 48 0.5 45.3137 0.5 42V24V12V11.055C0.5 9.73922 1.0227 8.4773 1.95312 7.54688L5.14062 4.35938Z" fill="#E54D28"/>
</mask>
<g mask="url(#mask0_6_942)">
<path d="M5.14062 4.35938L8 1.5C8.96043 0.539566 10.2631 0 11.6213 0H12.5H24.5H42.5C45.8137 0 48.5 2.68629 48.5 6V42C48.5 45.3137 45.8137 48 42.5 48H6.5C3.18629 48 0.5 45.3137 0.5 42V24V12V11.055C0.5 9.73922 1.0227 8.4773 1.95312 7.54688L5.14062 4.35938Z" fill="black"/>
<path d="M29.692 44.176C28.2987 44.176 27.184 43.7653 26.348 42.944C25.512 42.1227 25.094 41.03 25.094 39.666V32.912C25.094 31.5333 25.512 30.4407 26.348 29.634C27.184 28.8273 28.2987 28.424 29.692 28.424C31.0853 28.424 32.2 28.8273 33.036 29.634C33.8867 30.4407 34.312 31.5333 34.312 32.912V33.11C34.312 33.1833 34.2827 33.2493 34.224 33.308C34.18 33.352 34.1213 33.374 34.048 33.374L30.924 33.506C30.748 33.506 30.66 33.418 30.66 33.242V32.648C30.66 32.3107 30.572 32.0467 30.396 31.856C30.22 31.6507 29.9853 31.548 29.692 31.548C29.4133 31.548 29.186 31.6507 29.01 31.856C28.834 32.0467 28.746 32.3107 28.746 32.648V39.974C28.746 40.2967 28.834 40.5607 29.01 40.766C29.186 40.9567 29.4133 41.052 29.692 41.052C29.9853 41.052 30.22 40.9567 30.396 40.766C30.572 40.5607 30.66 40.2967 30.66 39.974V39.336C30.66 39.2627 30.682 39.204 30.726 39.16C30.7847 39.1013 30.8507 39.072 30.924 39.072L34.048 39.204C34.1213 39.204 34.18 39.2333 34.224 39.292C34.2827 39.336 34.312 39.3947 34.312 39.468V39.666C34.312 41.03 33.8867 42.1227 33.036 42.944C32.2 43.7653 31.0853 44.176 29.692 44.176ZM44.052 31.46C44.052 31.5333 44.0227 31.5993 43.964 31.658C43.92 31.702 43.8613 31.724 43.788 31.724H39.366C39.2927 31.724 39.256 31.7607 39.256 31.834V34.606C39.256 34.6793 39.2927 34.716 39.366 34.716H41.786C41.8593 34.716 41.918 34.7453 41.962 34.804C42.0207 34.848 42.05 34.9067 42.05 34.98V37.598C42.05 37.6713 42.0207 37.7373 41.962 37.796C41.918 37.84 41.8593 37.862 41.786 37.862H39.366C39.2927 37.862 39.256 37.8987 39.256 37.972V40.766C39.256 40.8393 39.2927 40.876 39.366 40.876H43.788C43.8613 40.876 43.92 40.9053 43.964 40.964C44.0227 41.008 44.052 41.0667 44.052 41.14V43.736C44.052 43.8093 44.0227 43.8753 43.964 43.934C43.92 43.978 43.8613 44 43.788 44H35.868C35.7947 44 35.7287 43.978 35.67 43.934C35.626 43.8753 35.604 43.8093 35.604 43.736V28.864C35.604 28.7907 35.626 28.732 35.67 28.688C35.7287 28.6293 35.7947 28.6 35.868 28.6H43.788C43.8613 28.6 43.92 28.6293 43.964 28.688C44.0227 28.732 44.052 28.7907 44.052 28.864V31.46Z" fill="white"/>
</g>
</svg>
