<svg width="24" height="24" viewBox="0 0 24 24" fill="none" xmlns="http://www.w3.org/2000/svg">
<mask id="mask0_6_950" style="mask-type:alpha" maskUnits="userSpaceOnUse" x="0" y="0" width="24" height="24">
<path d="M2.32031 2.17969L3.75 0.75L3.91421 0.585787C4.28929 0.210714 4.79799 0 5.32843 0H6H12H22C23.1046 0 24 0.895431 24 2V22C24 23.1046 23.1046 24 22 24H2C0.89543 24 0 23.1046 0 22V12V6V5.32843C0 4.79799 0.210713 4.28929 0.585786 3.91421L0.726562 3.77344L2.32031 2.17969Z" fill="#E54D28"/>
</mask>
<g mask="url(#mask0_6_950)">
<path d="M2.32031 2.17969L3.75 0.75L3.91421 0.585787C4.28929 0.210714 4.79799 0 5.32843 0H6H12H22C23.1046 0 24 0.895431 24 2V22C24 23.1046 23.1046 24 22 24H2C0.89543 24 0 23.1046 0 22V12V6V5.32843C0 4.79799 0.210713 4.28929 0.585786 3.91421L0.726562 3.77344L2.32031 2.17969Z" fill="black"/>
<path d="M15.36 22.08C14.7267 22.08 14.22 21.8933 13.84 21.52C13.46 21.1467 13.27 20.65 13.27 20.03V16.96C13.27 16.3333 13.46 15.8367 13.84 15.47C14.22 15.1033 14.7267 14.92 15.36 14.92C15.9933 14.92 16.5 15.1033 16.88 15.47C17.2667 15.8367 17.46 16.3333 17.46 16.96V17.05C17.46 17.0833 17.4467 17.1133 17.42 17.14C17.4 17.16 17.3733 17.17 17.34 17.17L15.92 17.23C15.84 17.23 15.8 17.19 15.8 17.11V16.84C15.8 16.6867 15.76 16.5667 15.68 16.48C15.6 16.3867 15.4933 16.34 15.36 16.34C15.2333 16.34 15.13 16.3867 15.05 16.48C14.97 16.5667 14.93 16.6867 14.93 16.84V20.17C14.93 20.3167 14.97 20.4367 15.05 20.53C15.13 20.6167 15.2333 20.66 15.36 20.66C15.4933 20.66 15.6 20.6167 15.68 20.53C15.76 20.4367 15.8 20.3167 15.8 20.17V19.88C15.8 19.8467 15.81 19.82 15.83 19.8C15.8567 19.7733 15.8867 19.76 15.92 19.76L17.34 19.82C17.3733 19.82 17.4 19.8333 17.42 19.86C17.4467 19.88 17.46 19.9067 17.46 19.94V20.03C17.46 20.65 17.2667 21.1467 16.88 21.52C16.5 21.8933 15.9933 22.08 15.36 22.08ZM21.8873 16.3C21.8873 16.3333 21.8739 16.3633 21.8473 16.39C21.8273 16.41 21.8006 16.42 21.7673 16.42H19.7573C19.7239 16.42 19.7073 16.4367 19.7073 16.47V17.73C19.7073 17.7633 19.7239 17.78 19.7573 17.78H20.8573C20.8906 17.78 20.9173 17.7933 20.9373 17.82C20.9639 17.84 20.9773 17.8667 20.9773 17.9V19.09C20.9773 19.1233 20.9639 19.1533 20.9373 19.18C20.9173 19.2 20.8906 19.21 20.8573 19.21H19.7573C19.7239 19.21 19.7073 19.2267 19.7073 19.26V20.53C19.7073 20.5633 19.7239 20.58 19.7573 20.58H21.7673C21.8006 20.58 21.8273 20.5933 21.8473 20.62C21.8739 20.64 21.8873 20.6667 21.8873 20.7V21.88C21.8873 21.9133 21.8739 21.9433 21.8473 21.97C21.8273 21.99 21.8006 22 21.7673 22H18.1673C18.1339 22 18.1039 21.99 18.0773 21.97C18.0573 21.9433 18.0473 21.9133 18.0473 21.88V15.12C18.0473 15.0867 18.0573 15.06 18.0773 15.04C18.1039 15.0133 18.1339 15 18.1673 15H21.7673C21.8006 15 21.8273 15.0133 21.8473 15.04C21.8739 15.06 21.8873 15.0867 21.8873 15.12V16.3Z" fill="white"/>
</g>
</svg>
