<svg width="322" height="512" viewBox="0 0 322 512" fill="none" xmlns="http://www.w3.org/2000/svg">
<rect x="122.686" y="258.338" width="77.9225" height="202.267" fill="#EFEFEF"/>
<rect x="122.686" y="477.184" width="77.9225" height="34.8164" fill="#EFEFEF"/>
<rect x="122.686" y="271.601" width="36.4743" height="189.003" fill="#BCBCBC"/>
<rect x="122.686" y="477.184" width="36.4743" height="34.8164" fill="#BCBCBC"/>
<rect x="242.057" y="1.36035" width="18.2372" height="189.003" fill="#BCBCBC"/>
<path fill-rule="evenodd" clip-rule="evenodd" d="M63.2952 0C24.8218 29.3841 0 75.7358 0 127.885C0 216.703 72.001 288.704 160.819 288.704C249.636 288.704 321.637 216.703 321.637 127.885C321.637 76.489 297.527 30.7242 260.001 1.28369V145.186L161.648 221.865L63.2952 145.186V0Z" fill="#EFEFEF"/>
<path fill-rule="evenodd" clip-rule="evenodd" d="M267 246.732C270.919 244.15 274.727 241.387 278.414 238.456C275.761 241.314 273.006 244.074 270.155 246.732H267ZM159.161 269.353C83.9378 256.047 26.5267 185.293 26.5267 100.006C26.5267 67.9269 34.649 37.9037 48.7865 12.2202C18.6961 41.5947 0 82.6979 0 128.19C0 216.91 71.1068 288.936 159.161 289.83V269.353Z" fill="#BCBCBC"/>
</svg>
