<svg width="256" height="256" viewBox="0 0 256 256" fill="none" xmlns="http://www.w3.org/2000/svg">
<mask id="mask0_6_856" style="mask-type:alpha" maskUnits="userSpaceOnUse" x="0" y="0" width="256" height="256">
<path d="M24.75 23.25L40 8L42.1421 5.85786C45.8929 2.10714 50.9799 0 56.2843 0H64H128H236C247.046 0 256 8.95431 256 20V236C256 247.046 247.046 256 236 256H20C8.95431 256 0 247.046 0 236V128V64V56.2843C0 50.9799 2.10714 45.8929 5.85786 42.1421L7.75 40.25L24.75 23.25Z" fill="#E54D28"/>
</mask>
<g mask="url(#mask0_6_856)">
<path d="M24.75 23.25L40 8L42.1421 5.85786C45.8929 2.10714 50.9799 0 56.2843 0H64H128H236C247.046 0 256 8.95431 256 20V236C256 247.046 247.046 256 236 256H20C8.95431 256 0 247.046 0 236V128V64V56.2843C0 50.9799 2.10714 45.8929 5.85786 42.1421L7.75 40.25L24.75 23.25Z" fill="black"/>
<path d="M104.66 236C103.633 236 103.027 235.487 102.84 234.46L83.94 139.82L83.8 139.26C83.8 138.42 84.3133 138 85.34 138H102.42C103.54 138 104.147 138.513 104.24 139.54L112.22 189.94C112.313 190.313 112.453 190.5 112.64 190.5C112.827 190.5 112.967 190.313 113.06 189.94L120.62 139.54C120.713 138.513 121.32 138 122.44 138H136.58C137.7 138 138.307 138.513 138.4 139.54L146.66 189.94C146.753 190.313 146.893 190.5 147.08 190.5C147.267 190.5 147.407 190.313 147.5 189.94L154.64 139.54C154.733 138.513 155.34 138 156.46 138H172.98C174.193 138 174.707 138.607 174.52 139.82L156.74 234.46C156.647 235.487 156.04 236 154.92 236H139.8C138.68 236 138.073 235.487 137.98 234.46L129.72 182.66C129.627 182.287 129.487 182.1 129.3 182.1C129.113 182.1 128.973 182.287 128.88 182.66L121.46 234.46C121.367 235.487 120.76 236 119.64 236H104.66ZM207.819 237.12C199.419 237.12 192.653 234.647 187.519 229.7C182.479 224.66 179.959 217.94 179.959 209.54V164.18C179.959 155.873 182.479 149.247 187.519 144.3C192.653 139.353 199.419 136.88 207.819 136.88C216.313 136.88 223.079 139.353 228.119 144.3C233.253 149.247 235.819 155.873 235.819 164.18V165.72C235.819 166.187 235.633 166.607 235.259 166.98C234.979 167.26 234.606 167.4 234.139 167.4L217.759 168.1C216.639 168.1 216.079 167.587 216.079 166.56V162.92C216.079 160.213 215.333 158.02 213.839 156.34C212.346 154.66 210.339 153.82 207.819 153.82C205.393 153.82 203.433 154.66 201.939 156.34C200.446 158.02 199.699 160.213 199.699 162.92V211.22C199.699 213.927 200.446 216.12 201.939 217.8C203.433 219.387 205.393 220.18 207.819 220.18C210.339 220.18 212.346 219.387 213.839 217.8C215.333 216.12 216.079 213.927 216.079 211.22V207.44C216.079 206.973 216.219 206.6 216.499 206.32C216.873 205.947 217.293 205.76 217.759 205.76L234.139 206.46C234.606 206.46 234.979 206.647 235.259 207.02C235.633 207.3 235.819 207.673 235.819 208.14V209.54C235.819 217.94 233.253 224.66 228.119 229.7C222.986 234.647 216.219 237.12 207.819 237.12Z" fill="white"/>
</g>
</svg>
