<svg width="49" height="48" viewBox="0 0 49 48" fill="none" xmlns="http://www.w3.org/2000/svg">
<mask id="mask0_6_864" style="mask-type:alpha" maskUnits="userSpaceOnUse" x="0" y="0" width="49" height="48">
<path d="M5.14062 4.35938L8 1.5C8.96043 0.539566 10.2631 0 11.6213 0H12.5H24.5H42.5C45.8137 0 48.5 2.68629 48.5 6V42C48.5 45.3137 45.8137 48 42.5 48H6.5C3.18629 48 0.5 45.3137 0.5 42V24V12V11.055C0.5 9.73922 1.0227 8.4773 1.95312 7.54688L5.14062 4.35938Z" fill="#E54D28"/>
</mask>
<g mask="url(#mask0_6_864)">
<path d="M5.14062 4.35938L8 1.5C8.96043 0.539566 10.2631 0 11.6213 0H12.5H24.5H42.5C45.8137 0 48.5 2.68629 48.5 6V42C48.5 45.3137 45.8137 48 42.5 48H6.5C3.18629 48 0.5 45.3137 0.5 42V24V12V11.055C0.5 9.73922 1.0227 8.4773 1.95312 7.54688L5.14062 4.35938Z" fill="black"/>
<path d="M24.218 44C24.0567 44 23.9613 43.9193 23.932 43.758L20.962 28.886L20.94 28.798C20.94 28.666 21.0207 28.6 21.182 28.6H23.866C24.042 28.6 24.1373 28.6807 24.152 28.842L25.406 36.762C25.4207 36.8207 25.4427 36.85 25.472 36.85C25.5013 36.85 25.5233 36.8207 25.538 36.762L26.726 28.842C26.7407 28.6807 26.836 28.6 27.012 28.6H29.234C29.41 28.6 29.5053 28.6807 29.52 28.842L30.818 36.762C30.8327 36.8207 30.8547 36.85 30.884 36.85C30.9133 36.85 30.9353 36.8207 30.95 36.762L32.072 28.842C32.0867 28.6807 32.182 28.6 32.358 28.6H34.954C35.1447 28.6 35.2253 28.6953 35.196 28.886L32.402 43.758C32.3873 43.9193 32.292 44 32.116 44H29.74C29.564 44 29.4687 43.9193 29.454 43.758L28.156 35.618C28.1413 35.5593 28.1193 35.53 28.09 35.53C28.0607 35.53 28.0387 35.5593 28.024 35.618L26.858 43.758C26.8433 43.9193 26.748 44 26.572 44H24.218ZM40.4287 44.176C39.1087 44.176 38.0454 43.7873 37.2387 43.01C36.4467 42.218 36.0507 41.162 36.0507 39.842V32.714C36.0507 31.4087 36.4467 30.3673 37.2387 29.59C38.0454 28.8127 39.1087 28.424 40.4287 28.424C41.7634 28.424 42.8267 28.8127 43.6187 29.59C44.4254 30.3673 44.8287 31.4087 44.8287 32.714V32.956C44.8287 33.0293 44.7994 33.0953 44.7407 33.154C44.6967 33.198 44.6381 33.22 44.5647 33.22L41.9907 33.33C41.8147 33.33 41.7267 33.2493 41.7267 33.088V32.516C41.7267 32.0907 41.6094 31.746 41.3747 31.482C41.1401 31.218 40.8247 31.086 40.4287 31.086C40.0474 31.086 39.7394 31.218 39.5047 31.482C39.2701 31.746 39.1527 32.0907 39.1527 32.516V40.106C39.1527 40.5313 39.2701 40.876 39.5047 41.14C39.7394 41.3893 40.0474 41.514 40.4287 41.514C40.8247 41.514 41.1401 41.3893 41.3747 41.14C41.6094 40.876 41.7267 40.5313 41.7267 40.106V39.512C41.7267 39.4387 41.7487 39.38 41.7927 39.336C41.8514 39.2773 41.9174 39.248 41.9907 39.248L44.5647 39.358C44.6381 39.358 44.6967 39.3873 44.7407 39.446C44.7994 39.49 44.8287 39.5487 44.8287 39.622V39.842C44.8287 41.162 44.4254 42.218 43.6187 43.01C42.8121 43.7873 41.7487 44.176 40.4287 44.176Z" fill="white"/>
</g>
</svg>
