<svg width="16" height="16" viewBox="0 0 16 16" fill="none" xmlns="http://www.w3.org/2000/svg">
<mask id="mask0_6_147" style="mask-type:alpha" maskUnits="userSpaceOnUse" x="0" y="0" width="16" height="16">
<path d="M1.54688 1.45312L2.5 0.5L2.70711 0.292893C2.89464 0.105357 3.149 0 3.41421 0H4H8H15C15.5523 0 16 0.447715 16 1V15C16 15.5523 15.5523 16 15 16H1C0.447715 16 0 15.5523 0 15V8V4V3.41421C0 3.149 0.105357 2.89464 0.292893 2.70711L0.484375 2.51562L1.54688 1.45312Z" fill="#E54D28"/>
</mask>
<g mask="url(#mask0_6_147)">
<path d="M1.54688 1.45312L2.5 0.5L2.70711 0.292893C2.89464 0.105357 3.149 0 3.41421 0H4H8H15C15.5523 0 16 0.447715 16 1V15C16 15.5523 15.5523 16 15 16H1C0.447715 16 0 15.5523 0 15V8V4V3.41421C0 3.149 0.105357 2.89464 0.292893 2.70711L0.484375 2.51562L1.54688 1.45312Z" fill="#E54D28"/>
<path d="M10.652 15.056C10.2087 15.056 9.854 14.9253 9.588 14.664C9.322 14.4027 9.189 14.055 9.189 13.621V11.472C9.189 11.0333 9.322 10.6857 9.588 10.429C9.854 10.1723 10.2087 10.044 10.652 10.044C11.0953 10.044 11.45 10.1723 11.716 10.429C11.9867 10.6857 12.122 11.0333 12.122 11.472V11.535C12.122 11.5583 12.1127 11.5793 12.094 11.598C12.08 11.612 12.0613 11.619 12.038 11.619L11.044 11.661C10.988 11.661 10.96 11.633 10.96 11.577V11.388C10.96 11.2807 10.932 11.1967 10.876 11.136C10.82 11.0707 10.7453 11.038 10.652 11.038C10.5633 11.038 10.491 11.0707 10.435 11.136C10.379 11.1967 10.351 11.2807 10.351 11.388V13.719C10.351 13.8217 10.379 13.9057 10.435 13.971C10.491 14.0317 10.5633 14.062 10.652 14.062C10.7453 14.062 10.82 14.0317 10.876 13.971C10.932 13.9057 10.96 13.8217 10.96 13.719V13.516C10.96 13.4927 10.967 13.474 10.981 13.46C10.9997 13.4413 11.0207 13.432 11.044 13.432L12.038 13.474C12.0613 13.474 12.08 13.4833 12.094 13.502C12.1127 13.516 12.122 13.5347 12.122 13.558V13.621C12.122 14.055 11.9867 14.4027 11.716 14.664C11.45 14.9253 11.0953 15.056 10.652 15.056ZM15.2211 11.01C15.2211 11.0333 15.2118 11.0543 15.1931 11.073C15.1791 11.087 15.1604 11.094 15.1371 11.094H13.7301C13.7068 11.094 13.6951 11.1057 13.6951 11.129V12.011C13.6951 12.0343 13.7068 12.046 13.7301 12.046H14.5001C14.5234 12.046 14.5421 12.0553 14.5561 12.074C14.5748 12.088 14.5841 12.1067 14.5841 12.13V12.963C14.5841 12.9863 14.5748 13.0073 14.5561 13.026C14.5421 13.04 14.5234 13.047 14.5001 13.047H13.7301C13.7068 13.047 13.6951 13.0587 13.6951 13.082V13.971C13.6951 13.9943 13.7068 14.006 13.7301 14.006H15.1371C15.1604 14.006 15.1791 14.0153 15.1931 14.034C15.2118 14.048 15.2211 14.0667 15.2211 14.09V14.916C15.2211 14.9393 15.2118 14.9603 15.1931 14.979C15.1791 14.993 15.1604 15 15.1371 15H12.6171C12.5938 15 12.5728 14.993 12.5541 14.979C12.5401 14.9603 12.5331 14.9393 12.5331 14.916V10.184C12.5331 10.1607 12.5401 10.142 12.5541 10.128C12.5728 10.1093 12.5938 10.1 12.6171 10.1H15.1371C15.1604 10.1 15.1791 10.1093 15.1931 10.128C15.2118 10.142 15.2211 10.1607 15.2211 10.184V11.01Z" fill="white"/>
</g>
</svg>
