<svg width="129" height="128" viewBox="0 0 129 128" fill="none" xmlns="http://www.w3.org/2000/svg">
<mask id="mask0_6_131" style="mask-type:alpha" maskUnits="userSpaceOnUse" x="0" y="0" width="129" height="128">
<path d="M12.875 11.625L20.5 4L20.9853 3.51472C23.2357 1.26428 26.288 0 29.4706 0H32.5H64.5H116.5C123.127 0 128.5 5.37258 128.5 12V116C128.5 122.627 123.127 128 116.5 128H12.5C5.87258 128 0.5 122.627 0.5 116V64V32V28.9706C0.5 25.788 1.76428 22.7357 4.01472 20.4853L4.375 20.125L12.875 11.625Z" fill="#E54D28"/>
</mask>
<g mask="url(#mask0_6_131)">
<path d="M12.875 11.625L20.5 4L20.9853 3.51472C23.2357 1.26428 26.288 0 29.4706 0H32.5H64.5H116.5C123.127 0 128.5 5.37258 128.5 12V116C128.5 122.627 123.127 128 116.5 128H12.5C5.87258 128 0.5 122.627 0.5 116V64V32V28.9706C0.5 25.788 1.76428 22.7357 4.01472 20.4853L4.375 20.125L12.875 11.625Z" fill="#E54D28"/>
<path d="M79.66 118.48C75.86 118.48 72.82 117.36 70.54 115.12C68.26 112.88 67.12 109.9 67.12 106.18V87.76C67.12 84 68.26 81.02 70.54 78.82C72.82 76.62 75.86 75.52 79.66 75.52C83.46 75.52 86.5 76.62 88.78 78.82C91.1 81.02 92.26 84 92.26 87.76V88.3C92.26 88.5 92.18 88.68 92.02 88.84C91.9 88.96 91.74 89.02 91.54 89.02L83.02 89.38C82.54 89.38 82.3 89.14 82.3 88.66V87.04C82.3 86.12 82.06 85.4 81.58 84.88C81.1 84.32 80.46 84.04 79.66 84.04C78.9 84.04 78.28 84.32 77.8 84.88C77.32 85.4 77.08 86.12 77.08 87.04V107.02C77.08 107.9 77.32 108.62 77.8 109.18C78.28 109.7 78.9 109.96 79.66 109.96C80.46 109.96 81.1 109.7 81.58 109.18C82.06 108.62 82.3 107.9 82.3 107.02V105.28C82.3 105.08 82.36 104.92 82.48 104.8C82.64 104.64 82.82 104.56 83.02 104.56L91.54 104.92C91.74 104.92 91.9 105 92.02 105.16C92.18 105.28 92.26 105.44 92.26 105.64V106.18C92.26 109.9 91.1 112.88 88.78 115.12C86.5 117.36 83.46 118.48 79.66 118.48ZM118.824 83.8C118.824 84 118.744 84.18 118.584 84.34C118.464 84.46 118.304 84.52 118.104 84.52H106.044C105.844 84.52 105.744 84.62 105.744 84.82V92.38C105.744 92.58 105.844 92.68 106.044 92.68H112.644C112.844 92.68 113.004 92.76 113.124 92.92C113.284 93.04 113.364 93.2 113.364 93.4V100.54C113.364 100.74 113.284 100.92 113.124 101.08C113.004 101.2 112.844 101.26 112.644 101.26H106.044C105.844 101.26 105.744 101.36 105.744 101.56V109.18C105.744 109.38 105.844 109.48 106.044 109.48H118.104C118.304 109.48 118.464 109.56 118.584 109.72C118.744 109.84 118.824 110 118.824 110.2V117.28C118.824 117.48 118.744 117.66 118.584 117.82C118.464 117.94 118.304 118 118.104 118H96.5036C96.3036 118 96.1236 117.94 95.9636 117.82C95.8436 117.66 95.7836 117.48 95.7836 117.28V76.72C95.7836 76.52 95.8436 76.36 95.9636 76.24C96.1236 76.08 96.3036 76 96.5036 76H118.104C118.304 76 118.464 76.08 118.584 76.24C118.744 76.36 118.824 76.52 118.824 76.72V83.8Z" fill="white"/>
</g>
</svg>
